<?xml version="1.0" encoding="UTF-8"?>
<svg version="1.1" xmlns="http://www.w3.org/2000/svg" width="831" height="468">
<path d="M0 0 C1.24377914 -0.00281982 2.48755829 -0.00563965 3.76902771 -0.00854492 C5.16011062 -0.00660031 6.55119338 -0.00455213 7.942276 -0.00241089 C9.39728845 -0.0037649 10.85230056 -0.00554483 12.30731201 -0.00772095 C16.27007911 -0.01229574 20.2328203 -0.01050543 24.19558787 -0.00734186 C28.33466715 -0.00481801 32.47374413 -0.00715591 36.61282349 -0.00872803 C43.56606954 -0.01054985 50.51930499 -0.00814329 57.47254944 -0.00338745 C65.51992262 0.00205306 73.56727047 0.0002941 81.61464304 -0.00521386 C88.51315336 -0.00974716 95.41165604 -0.0103944 102.31016737 -0.00777519 C106.43500246 -0.00621334 110.55982563 -0.0060161 114.68465996 -0.00931168 C118.56285733 -0.01219346 122.44102195 -0.010209 126.31921577 -0.00441742 C127.7454892 -0.00309139 129.17176537 -0.0034813 130.59803772 -0.00568008 C132.53939721 -0.00839773 134.48076271 -0.00439138 136.42211914 0 C137.51037963 0.00037703 138.59864012 0.00075405 139.7198782 0.0011425 C142.27455139 0.12698364 142.27455139 0.12698364 144.27455139 1.12698364 C144.2974152 57.67293678 144.31504831 114.21888947 144.32561672 170.76484632 C144.3268675 177.43300343 144.32816066 184.10116053 144.32948303 190.76931763 C144.32961379 191.43289702 144.32974455 192.09647642 144.32987927 192.78016428 C144.33414441 214.30797929 144.34165854 235.83579169 144.35084861 257.36360511 C144.36053839 280.10315753 144.36654501 302.8427086 144.36863989 325.58226305 C144.37001544 339.21265961 144.37436778 352.84304867 144.38246786 366.47344292 C144.38773338 375.80658598 144.38935613 385.13972513 144.38805277 394.47286957 C144.38740908 399.86628329 144.38843031 405.25968384 144.39375687 410.65309525 C144.39858949 415.58206439 144.39889095 420.5110114 144.39545029 425.43998153 C144.39502446 427.23137419 144.39632134 429.02276818 144.39943457 430.81415819 C144.40339633 433.23274103 144.40131618 435.65124193 144.39759922 438.06982327 C144.40022623 438.77952563 144.40285325 439.48922799 144.40555987 440.22043648 C144.38869719 445.01283784 144.38869719 445.01283784 143.27455139 446.12698364 C141.50220905 446.22440855 139.72593705 446.25069802 137.95091915 446.25003147 C136.20797649 446.25301804 136.20797649 446.25301804 134.42982286 446.25606495 C133.13704992 446.25315211 131.84427698 446.25023927 130.5123291 446.24723816 C129.13790732 446.24767374 127.76348562 446.2485484 126.38906437 446.24982733 C122.59458914 446.25207486 118.80014186 446.24804749 115.00567019 446.24304926 C110.92044168 446.23874864 106.83521487 446.24019091 102.74998474 446.24095154 C95.66617901 446.24147702 88.58238245 446.23832769 81.49857903 446.2327137 C71.25646757 446.22460197 61.01436057 446.22198382 50.77224625 446.22072571 C34.15688255 446.21853467 17.54152375 446.21187319 0.92616272 446.2024231 C-15.21836828 446.19325031 -31.36289795 446.18616883 -47.50743103 446.18191528 C-48.50183783 446.18165256 -49.49624464 446.18138984 -50.52078498 446.18111915 C-55.50921007 446.17981416 -60.49763516 446.17855044 -65.48606026 446.17730725 C-106.89919312 446.16693303 -148.31232058 446.14931331 -189.72544861 446.12698364 C-190.41990225 442.80411998 -190.85083869 439.76533381 -190.85243225 436.36807251 C-190.85525459 435.43561014 -190.85807693 434.50314777 -190.8609848 433.54242897 C-190.85794468 432.02097299 -190.85794468 432.02097299 -190.85484314 430.46878052 C-190.8565728 429.38673529 -190.85830246 428.30469006 -190.86008453 427.18985558 C-190.86445529 423.57513296 -190.86148602 419.96045691 -190.85826111 416.34573364 C-190.85927678 413.7790119 -190.86061625 411.21229027 -190.86225891 408.64556885 C-190.86468769 402.4510025 -190.86183086 396.25645834 -190.85601366 390.06189477 C-190.85136164 385.06753837 -190.84896838 380.07318525 -190.84776306 375.0788269 C-190.83307861 324.09059328 -190.44691432 273.11036738 -189.72544861 222.12698364 C-179.87187858 220.916866 -170.0585745 220.99850884 -160.15122986 221.02932739 C-158.37333211 221.03119608 -156.59543385 221.03261785 -154.8175354 221.03361511 C-150.17340128 221.03740483 -145.52929921 221.0472042 -140.88517761 221.05831909 C-136.13206923 221.06861007 -131.37895559 221.07312909 -126.62583923 221.07815552 C-117.32569506 221.08883019 -108.02557452 221.10586321 -98.72544861 221.12698364 C-98.72766922 219.80789001 -98.72988983 218.48879639 -98.73217773 217.12973022 C-98.752432 204.71055027 -98.7674318 192.29137365 -98.77726078 179.87218094 C-98.78248378 173.4870561 -98.78957091 167.10194457 -98.80088806 160.71682739 C-98.81173757 154.55714537 -98.81772985 148.39747618 -98.82032585 142.23778534 C-98.82217636 139.88541207 -98.82578984 137.53303952 -98.83117867 135.18067169 C-98.83841641 131.89095024 -98.83943838 128.60128206 -98.838974 125.31155396 C-98.84256927 124.33475677 -98.84616455 123.35795959 -98.84986877 122.3515625 C-98.84849411 121.45416351 -98.84711945 120.55676453 -98.84570312 119.63217163 C-98.84662492 118.85417835 -98.84754671 118.07618507 -98.84849644 117.27461624 C-98.72544861 115.12698364 -98.72544861 115.12698364 -97.72544861 111.12698364 C-67.69544861 111.12698364 -37.66544861 111.12698364 -6.72544861 111.12698364 C-6.73705017 103.19796021 -6.74865173 95.26893677 -6.76060486 87.09963989 C-6.76571141 82.09117554 -6.77052517 77.08271437 -6.77427673 72.07424927 C-6.78026595 64.11599031 -6.78736833 56.15774337 -6.80088806 48.19949341 C-6.81171432 41.78695487 -6.81772488 35.3744286 -6.82032585 28.96188164 C-6.82218057 26.50934086 -6.82580208 24.0568008 -6.83117867 21.60426521 C-6.83838562 18.18221687 -6.8394397 14.76021993 -6.838974 11.33816528 C-6.84256927 10.31317932 -6.84616455 9.28819336 -6.84986877 8.23214722 C-6.84849411 7.30521561 -6.84711945 6.378284 -6.84570312 5.42326355 C-6.84708581 4.2078795 -6.84708581 4.2078795 -6.84849644 2.96794224 C-6.57720443 -1.09094576 -3.35842605 0.00116392 0 0 Z " fill="#FCC317" transform="translate(438.72544860839844,10.873016357421875)"/>
<path d="M0 0 C1.24377914 -0.00281982 2.48755829 -0.00563965 3.76902771 -0.00854492 C5.16011062 -0.00660031 6.55119338 -0.00455213 7.942276 -0.00241089 C9.39728845 -0.0037649 10.85230056 -0.00554483 12.30731201 -0.00772095 C16.27007911 -0.01229574 20.2328203 -0.01050543 24.19558787 -0.00734186 C28.33466715 -0.00481801 32.47374413 -0.00715591 36.61282349 -0.00872803 C43.56606954 -0.01054985 50.51930499 -0.00814329 57.47254944 -0.00338745 C65.51992262 0.00205306 73.56727047 0.0002941 81.61464304 -0.00521386 C88.51315336 -0.00974716 95.41165604 -0.0103944 102.31016737 -0.00777519 C106.43500246 -0.00621334 110.55982563 -0.0060161 114.68465996 -0.00931168 C118.56285733 -0.01219346 122.44102195 -0.010209 126.31921577 -0.00441742 C127.7454892 -0.00309139 129.17176537 -0.0034813 130.59803772 -0.00568008 C132.53939721 -0.00839773 134.48076271 -0.00439138 136.42211914 0 C137.51037963 0.00037703 138.59864012 0.00075405 139.7198782 0.0011425 C142.27455139 0.12698364 142.27455139 0.12698364 144.27455139 1.12698364 C144.2974152 57.67293678 144.31504831 114.21888947 144.32561672 170.76484632 C144.3268675 177.43300343 144.32816066 184.10116053 144.32948303 190.76931763 C144.32961379 191.43289702 144.32974455 192.09647642 144.32987927 192.78016428 C144.33414441 214.30797929 144.34165854 235.83579169 144.35084861 257.36360511 C144.36053839 280.10315753 144.36654501 302.8427086 144.36863989 325.58226305 C144.37001544 339.21265961 144.37436778 352.84304867 144.38246786 366.47344292 C144.38773338 375.80658598 144.38935613 385.13972513 144.38805277 394.47286957 C144.38740908 399.86628329 144.38843031 405.25968384 144.39375687 410.65309525 C144.39858949 415.58206439 144.39889095 420.5110114 144.39545029 425.43998153 C144.39502446 427.23137419 144.39632134 429.02276818 144.39943457 430.81415819 C144.40339633 433.23274103 144.40131618 435.65124193 144.39759922 438.06982327 C144.40022623 438.77952563 144.40285325 439.48922799 144.40555987 440.22043648 C144.38869719 445.01283784 144.38869719 445.01283784 143.27455139 446.12698364 C141.50220905 446.22440855 139.72593705 446.25069802 137.95091915 446.25003147 C136.20797649 446.25301804 136.20797649 446.25301804 134.42982286 446.25606495 C133.13704992 446.25315211 131.84427698 446.25023927 130.5123291 446.24723816 C129.13790732 446.24767374 127.76348562 446.2485484 126.38906437 446.24982733 C122.59458914 446.25207486 118.80014186 446.24804749 115.00567019 446.24304926 C110.92044168 446.23874864 106.83521487 446.24019091 102.74998474 446.24095154 C95.66617901 446.24147702 88.58238245 446.23832769 81.49857903 446.2327137 C71.25646757 446.22460197 61.01436057 446.22198382 50.77224625 446.22072571 C34.15688255 446.21853467 17.54152375 446.21187319 0.92616272 446.2024231 C-15.21836828 446.19325031 -31.36289795 446.18616883 -47.50743103 446.18191528 C-48.50183783 446.18165256 -49.49624464 446.18138984 -50.52078498 446.18111915 C-55.50921007 446.17981416 -60.49763516 446.17855044 -65.48606026 446.17730725 C-106.89919312 446.16693303 -148.31232058 446.14931331 -189.72544861 446.12698364 C-189.72544861 445.13698364 -189.72544861 444.14698364 -189.72544861 443.12698364 C-110.52544861 443.12698364 -31.32544861 443.12698364 50.27455139 443.12698364 C50.12585609 387.1093916 50.12585609 387.1093916 49.96791077 331.09182739 C49.94594436 323.54348777 49.92403934 315.99514796 49.90223694 308.44680786 C49.89813416 307.02768642 49.89813416 307.02768642 49.8939485 305.57989585 C49.84986201 290.29973447 49.80924213 275.01956574 49.76989878 259.73939149 C49.72945452 244.06155921 49.68529399 228.38374059 49.63767284 212.70592844 C49.60839797 203.02939893 49.58203293 193.35287043 49.55937242 183.67632313 C49.54356256 177.04364963 49.52414779 170.41099283 49.50188298 163.77833788 C49.48913823 159.9498417 49.47799755 156.12135831 49.47113228 152.29284668 C49.46365031 148.14356685 49.44858488 143.9943492 49.43276978 139.84509277 C49.43179167 138.63303016 49.43081356 137.42096755 49.42980582 136.17217577 C49.42433137 135.05947647 49.41885693 133.94677718 49.41321659 132.80035973 C49.41055855 131.84270505 49.40790051 130.88505038 49.40516192 129.89837587 C49.26440693 126.91173081 48.82013015 124.06446279 48.27455139 121.12698364 C47.28455139 120.79698364 46.29455139 120.46698364 45.27455139 120.12698364 C44.94455139 119.13698364 44.61455139 118.14698364 44.27455139 117.12698364 C39.16048271 114.33885261 34.70683164 113.67073249 28.89637756 113.63504028 C27.67929454 113.61038224 27.67929454 113.61038224 26.43762398 113.58522606 C23.75179354 113.53447786 21.06615872 113.50439945 18.38002014 113.47463989 C16.46684926 113.44313432 14.55369698 113.41048138 12.64056396 113.37675476 C7.55415666 113.29136638 2.46768747 113.2249015 -2.61907196 113.16449738 C-5.68336573 113.12749185 -8.74758537 113.08672536 -11.81181335 113.04464722 C-24.98285189 112.86483835 -38.15409256 112.72234273 -51.32572937 112.59475708 C-56.59115192 112.54312406 -61.8565403 112.48820393 -67.12193298 112.43362427 C-77.32307524 112.32833449 -87.52424804 112.22645279 -97.72544861 112.12698364 C-97.72544861 111.79698364 -97.72544861 111.46698364 -97.72544861 111.12698364 C-67.69544861 111.12698364 -37.66544861 111.12698364 -6.72544861 111.12698364 C-6.73705017 103.19796021 -6.74865173 95.26893677 -6.76060486 87.09963989 C-6.76571141 82.09117554 -6.77052517 77.08271437 -6.77427673 72.07424927 C-6.78026595 64.11599031 -6.78736833 56.15774337 -6.80088806 48.19949341 C-6.81171432 41.78695487 -6.81772488 35.3744286 -6.82032585 28.96188164 C-6.82218057 26.50934086 -6.82580208 24.0568008 -6.83117867 21.60426521 C-6.83838562 18.18221687 -6.8394397 14.76021993 -6.838974 11.33816528 C-6.84256927 10.31317932 -6.84616455 9.28819336 -6.84986877 8.23214722 C-6.84849411 7.30521561 -6.84711945 6.378284 -6.84570312 5.42326355 C-6.84708581 4.2078795 -6.84708581 4.2078795 -6.84849644 2.96794224 C-6.57720443 -1.09094576 -3.35842605 0.00116392 0 0 Z " fill="#EB9701" transform="translate(438.72544860839844,10.873016357421875)"/>
<path d="M0 0 C30.36 0 60.72 0 92 0 C92.33 0.66 92.66 1.32 93 2 C62.97 2 32.94 2 2 2 C2.5268819 10.5767765 2.5268819 10.5767765 4 19 C4.02272034 21.10974121 4.02272034 21.10974121 3.88110352 23.42773438 C3.80894875 24.76487488 3.80894875 24.76487488 3.7353363 26.12902832 C3.67958939 27.10738647 3.62384247 28.08574463 3.56640625 29.09375 C3.06343504 39.32605039 2.89724394 49.53911774 2.90234375 59.78125 C2.90263203 60.50202728 2.9029203 61.22280457 2.90321732 61.96542358 C2.90669175 66.39131791 2.91791492 70.81716815 2.93133545 75.24304199 C2.94177639 79.06566798 2.94617637 82.8883012 2.95117188 86.7109375 C2.96172778 94.14064388 2.97867201 101.57031587 3 109 C3.99 108.67 4.98 108.34 6 108 C6.66 108.33 7.32 108.66 8 109 C9.81750319 109.13018787 11.63929652 109.20260979 13.4609375 109.24609375 C15.12962891 109.29540039 15.12962891 109.29540039 16.83203125 109.34570312 C19.15487478 109.40588705 21.47779273 109.46327794 23.80078125 109.51757812 C45.50939671 110.17654526 45.50939671 110.17654526 52 117 C52.598125 117.53625 53.19625 118.0725 53.8125 118.625 C56.87565864 122.17181527 56.13624457 126.86246895 56.12025452 131.25724792 C56.12153615 132.53516117 56.12153615 132.53516117 56.12284368 133.83889085 C56.12449561 136.7040571 56.11898178 139.56916528 56.11352539 142.43432617 C56.11324343 144.48400369 56.11340142 146.53368131 56.1139679 148.58335876 C56.11425553 154.15739231 56.1083643 159.73140447 56.10139394 165.30543303 C56.09515473 171.12706758 56.09455615 176.94870259 56.09336853 182.77033997 C56.09025689 193.79877702 56.08204575 204.8272042 56.07201904 215.85563689 C56.05876596 230.75529867 56.05335664 245.65496314 56.04751682 260.55462933 C56.03810576 284.03642695 56.01818571 307.51820373 56 331 C6.83 331.33 -42.34 331.66 -93 332 C-93.07991314 256.96156455 -93.07991314 256.96156455 -93.06640625 237.8984375 C-93.06593143 237.18592567 -93.0654566 236.47341384 -93.06496739 235.73931074 C-93.04418961 206.63690598 -92.84766442 177.53795182 -92.5 148.4375 C-92.48206327 146.93502401 -92.48206327 146.93502401 -92.46376419 145.40219498 C-92.32178226 133.60128657 -92.16825583 121.80056329 -92 110 C-82.14642997 108.78988236 -72.33312589 108.8715252 -62.42578125 108.90234375 C-60.6478835 108.90421244 -58.86998524 108.90563421 -57.09208679 108.90663147 C-52.44795267 108.91042119 -47.8038506 108.92022056 -43.159729 108.93133545 C-38.40662062 108.94162643 -33.65350698 108.94614545 -28.90039062 108.95117188 C-19.60024646 108.96184654 -10.30012591 108.97887957 -1 109 C-1.00092179 108.45646976 -1.00184359 107.91293951 -1.00279331 107.35293865 C-1.02486909 94.13309123 -1.04135779 80.91324703 -1.05181217 67.69338512 C-1.05703734 61.30038454 -1.06412839 54.90739724 -1.07543945 48.5144043 C-1.08628128 42.34824302 -1.0922796 36.18209453 -1.09487724 30.01592445 C-1.09672914 27.65993358 -1.10034528 25.30394344 -1.10573006 22.94795799 C-1.11295762 19.65563808 -1.11399021 16.36337146 -1.11352539 13.07104492 C-1.11712067 12.09065247 -1.12071594 11.11026001 -1.12442017 10.10015869 C-1.1230455 9.20413437 -1.12167084 8.30811005 -1.12025452 7.38493347 C-1.12117631 6.6060184 -1.1220981 5.82710333 -1.12304783 5.02458477 C-1 3 -1 3 0 0 Z " fill="#FEDD5D" transform="translate(341,123)"/>
<path d="M0 0 C1.98 0.99 1.98 0.99 4 2 C5.91171388 151.90741279 5.91171388 151.90741279 4 203 C4.66 203.33 5.32 203.66 6 204 C5.34 204 4.68 204 4 204 C4.26936307 208.96985433 4.26936307 208.96985433 6.875 213 C9.10554506 214.3481935 9.10554506 214.3481935 12 213 C11 215 10 217 9 219 C9.61875 219.309375 10.2375 219.61875 10.875 219.9375 C12.25 220.625 13.625 221.3125 15 222 C14.67 222.99 14.34 223.98 14 225 C13.01 224.67 12.02 224.34 11 224 C10.67 225.32 10.34 226.64 10 228 C11.32 228.99 12.64 229.98 14 231 C13.67 232.32 13.34 233.64 13 235 C13.66 235 14.32 235 15 235 C15.33 234.34 15.66 233.68 16 233 C17.32 233.66 18.64 234.32 20 235 C19.34 235.33 18.68 235.66 18 236 C17.63451555 237.32488113 17.3062434 238.66018514 17 240 C16.36345658 241.3479743 15.70394612 242.68596724 15 244 C14.566875 243.505 14.13375 243.01 13.6875 242.5 C12.00259517 240.66781808 12.00259517 240.66781808 9 241 C8.67 241.99 8.34 242.98 8 244 C8.99 244.33 9.98 244.66 11 245 C10.67 245.66 10.34 246.32 10 247 C9.34 247 8.68 247 8 247 C8 247.99 8 248.98 8 250 C8.99 250 9.98 250 11 250 C11 249.34 11 248.68 11 248 C11.99 248.33 12.98 248.66 14 249 C14.19466332 250.79090253 14.38051213 252.58276505 14.5625 254.375 C14.66691406 255.37273437 14.77132812 256.37046875 14.87890625 257.3984375 C15 260 15 260 14 262 C14.99 262.33 15.98 262.66 17 263 C17 265.33333333 17 267.66666667 17 270 C17.02320313 270.63292969 17.04640625 271.26585937 17.0703125 271.91796875 C17.19448505 277.07112937 16.59730215 281.10826215 15 286 C15 286.66 15 287.32 15 288 C15.99 288.33 16.98 288.66 18 289 C17.67 289.33 17.34 289.66 17 290 C17.99 290.33 18.98 290.66 20 291 C19.67 292.0725 19.34 293.145 19 294.25 C17.8282249 297.99731601 17.8282249 297.99731601 18 302 C18 304.66666667 18 307.33333333 18 310 C18.99 310.33 19.98 310.66 21 311 C20 314 20 314 17.9375 315.1875 C17.298125 315.455625 16.65875 315.72375 16 316 C16 316.99 16 317.98 16 319 C16.99 318.67 17.98 318.34 19 318 C19.33 317.34 19.66 316.68 20 316 C21.32 316 22.64 316 24 316 C24.33 317.32 24.66 318.64 25 320 C27.97 320 30.94 320 34 320 C34.33 318.68 34.66 317.36 35 316 C35 317.32 35 318.64 35 320 C63.215 319.505 63.215 319.505 92 319 C91.99214478 312.80005249 91.99214478 312.80005249 91.98413086 306.47485352 C91.96755474 292.81237556 91.95646166 279.14989776 91.94818783 265.48741245 C91.9430382 257.20457508 91.93602094 248.92174726 91.92456055 240.63891602 C91.91457294 233.4170587 91.90813688 226.1952083 91.90591151 218.97334427 C91.90461132 215.15175675 91.90156938 211.33018902 91.89426994 207.50860786 C91.88744534 203.90618737 91.88539606 200.30379468 91.88689232 196.70136833 C91.88648922 194.76005574 91.88112775 192.81874612 91.87557983 190.87744141 C91.88305336 184.49742841 92.14465325 178.32418543 93 172 C93.33 172 93.66 172 94 172 C94.02332753 191.67068178 94.04097845 211.34136076 94.05181217 231.01205349 C94.05697544 240.14484048 94.06401872 249.2776189 94.07543945 258.41040039 C94.08538535 266.36757874 94.0918532 274.32475088 94.09408849 282.28193527 C94.09539576 286.49785986 94.09848262 290.71376668 94.10573006 294.92968559 C94.11248879 298.89322184 94.11461726 302.85673289 94.11310768 306.82027435 C94.11338408 308.27922006 94.11539007 309.73816657 94.11920547 311.19710732 C94.12414036 313.18046595 94.12239811 315.16383792 94.12025452 317.14720154 C94.12163721 318.81610774 94.12163721 318.81610774 94.12304783 320.51872921 C94 323 94 323 93 324 C91.22765766 324.09742491 89.45138566 324.12371438 87.67636776 324.12304783 C85.9334251 324.1260344 85.9334251 324.1260344 84.15527147 324.12908131 C82.86249853 324.12616847 81.56972559 324.12325563 80.23777771 324.12025452 C78.86335593 324.1206901 77.48893423 324.12156476 76.11451298 324.12284368 C72.32003775 324.12509122 68.52559047 324.12106385 64.7311188 324.11606562 C60.64589029 324.111765 56.56066348 324.11320727 52.47543335 324.1139679 C45.39162761 324.11449338 38.30783106 324.11134405 31.22402763 324.10573006 C20.98191618 324.09761833 10.73980918 324.09500017 0.49769486 324.09374207 C-16.11766884 324.09155103 -32.73302764 324.08488955 -49.34838867 324.07543945 C-65.49291967 324.06626667 -81.63744934 324.05918518 -97.78198242 324.05493164 C-98.77638923 324.05466892 -99.77079603 324.05440619 -100.79533637 324.05413551 C-105.78376146 324.05283051 -110.77218655 324.0515668 -115.76061165 324.05032361 C-157.17374451 324.03994939 -198.58687198 324.02232967 -240 324 C-240 323.01 -240 322.02 -240 321 C-160.8 321 -81.6 321 0 321 C-0.12568359 286.36740234 -0.12568359 286.36740234 -0.25390625 251.03515625 C-0.30458706 236.45638185 -0.35502199 221.87760724 -0.40429688 207.29882812 C-0.43018043 199.64461237 -0.4561267 191.99039683 -0.48217773 184.33618164 C-0.48544042 183.37678619 -0.4887031 182.41739075 -0.49206465 181.42892271 C-0.54490158 165.91907852 -0.60128142 150.4092491 -0.6589582 134.89942224 C-0.71802581 118.99450467 -0.77331315 103.08957725 -0.82505554 87.18463415 C-0.85713038 77.36219985 -0.89219069 67.53978538 -0.93101191 57.71737539 C-0.95731356 50.99131582 -0.97995943 44.26525028 -0.99967117 37.53916819 C-1.01117129 33.65254271 -1.02433993 29.76594084 -1.04183006 25.87933731 C-1.0607046 21.67579348 -1.07190983 17.47226537 -1.08229065 13.26869202 C-1.08909444 12.0265014 -1.09589823 10.78431079 -1.10290819 9.50447804 C-1.10440054 8.3878004 -1.10589289 7.27112277 -1.10743046 6.12060642 C-1.11255668 4.66304993 -1.11255668 4.66304993 -1.11778647 3.17604786 C-1 1 -1 1 0 0 Z " fill="#B76D00" transform="translate(489,133)"/>
<path d="M0 0 C1.24377914 -0.00281982 2.48755829 -0.00563965 3.76902771 -0.00854492 C5.16011062 -0.00660031 6.55119338 -0.00455213 7.942276 -0.00241089 C9.39728845 -0.0037649 10.85230056 -0.00554483 12.30731201 -0.00772095 C16.27007911 -0.01229574 20.2328203 -0.01050543 24.19558787 -0.00734186 C28.33466715 -0.00481801 32.47374413 -0.00715591 36.61282349 -0.00872803 C43.56606954 -0.01054985 50.51930499 -0.00814329 57.47254944 -0.00338745 C65.51992262 0.00205306 73.56727047 0.0002941 81.61464304 -0.00521386 C88.51315336 -0.00974716 95.41165604 -0.0103944 102.31016737 -0.00777519 C106.43500246 -0.00621334 110.55982563 -0.0060161 114.68465996 -0.00931168 C118.56285733 -0.01219346 122.44102195 -0.010209 126.31921577 -0.00441742 C127.7454892 -0.00309139 129.17176537 -0.0034813 130.59803772 -0.00568008 C132.53939721 -0.00839773 134.48076271 -0.00439138 136.42211914 0 C137.51037963 0.00037703 138.59864012 0.00075405 139.7198782 0.0011425 C142.27455139 0.12698364 142.27455139 0.12698364 144.27455139 1.12698364 C144.27455139 96.49698364 144.27455139 191.86698364 144.27455139 290.12698364 C143.94455139 290.12698364 143.61455139 290.12698364 143.27455139 290.12698364 C143.09124668 274.10631387 142.92706682 258.08547557 142.77455139 242.06448364 C142.76267414 240.81780033 142.75079689 239.57111702 142.73855972 238.28665543 C142.24951094 186.29601653 142.18809557 134.30713236 142.21205139 82.31448364 C142.21268774 80.89252064 142.21268774 80.89252064 142.21333694 79.44183111 C142.22445816 55.00353889 142.244628 30.56526001 142.27455139 6.12698364 C136.97264455 6.07739033 131.67087402 6.04117264 126.36878967 6.01712036 C124.5666824 6.00708888 122.76459129 5.99346049 120.96253967 5.97610474 C118.36598204 5.95173064 115.76964042 5.94047186 113.17298889 5.93167114 C112.37275299 5.92134857 111.57251709 5.911026 110.74803162 5.90039062 C106.21976102 5.89949096 102.49077133 6.2550247 98.27455139 8.12698364 C97.94455139 8.78698364 97.61455139 9.44698364 97.27455139 10.12698364 C95.29455139 9.63198364 95.29455139 9.63198364 93.27455139 9.12698364 C93.27455139 7.80698364 93.27455139 6.48698364 93.27455139 5.12698364 C92.69221237 5.19885391 92.10987335 5.27072418 91.5098877 5.34477234 C84.72857232 6.11065806 78.06587777 6.2282689 71.24720764 6.15432739 C68.96921428 6.1416974 66.69121942 6.12933528 64.41322327 6.11721802 C60.85580169 6.09228224 57.29845957 6.06412469 53.74110413 6.03103638 C50.28479997 6.00095272 46.82860035 5.98311187 43.37220764 5.96682739 C42.3034993 5.95336777 41.23479095 5.93990814 40.13369751 5.92604065 C38.65086525 5.92097252 38.65086525 5.92097252 37.13807678 5.915802 C36.26889114 5.90834457 35.39970551 5.90088715 34.50418091 5.89320374 C31.98779137 5.98238871 31.98779137 5.98238871 29.27455139 8.12698364 C29.27455139 7.13698364 29.27455139 6.14698364 29.27455139 5.12698364 C28.12986389 5.37448364 28.12986389 5.37448364 26.96205139 5.62698364 C22.81507877 6.18928501 18.84192921 6.15577879 14.66517639 6.06448364 C12.2584958 5.95847598 12.2584958 5.95847598 10.27455139 7.12698364 C7.93638989 6.82939945 5.60273103 6.49459095 3.27455139 6.12698364 C2.28455139 6.12698364 1.29455139 6.12698364 0.27455139 6.12698364 C-0.05544861 6.78698364 -0.38544861 7.44698364 -0.72544861 8.12698364 C-1.05544861 8.45698364 -1.38544861 8.78698364 -1.72544861 9.12698364 C-1.83277294 10.46723907 -1.87223142 11.81301942 -1.88366699 13.15751648 C-1.89345581 14.02554901 -1.90324463 14.89358154 -1.91333008 15.78791809 C-1.91908554 16.74744888 -1.924841 17.70697968 -1.93077087 18.69558716 C-1.94067047 19.70035095 -1.95057007 20.70511475 -1.96076965 21.74032593 C-1.99248945 25.07882285 -2.01718334 28.41733404 -2.04185486 31.75588989 C-2.06241535 34.06375001 -2.08341156 36.37160628 -2.10482788 38.67945862 C-2.16014207 44.76711931 -2.20950999 50.85481451 -2.25767517 56.9425354 C-2.30782212 63.14923184 -2.36354363 69.3558779 -2.41880798 75.56253052 C-2.52650383 87.7506402 -2.62740843 99.93879246 -2.72544861 112.12698364 C10.14455139 112.12698364 23.01455139 112.12698364 36.27455139 112.12698364 C36.27455139 112.45698364 36.27455139 112.78698364 36.27455139 113.12698364 C7.09375698 113.20206461 -22.07841318 113.01010676 -51.25706482 112.66342163 C-56.52905794 112.60132108 -61.80108275 112.54203158 -67.07310486 112.48245239 C-77.2905842 112.36659678 -87.50802704 112.24782056 -97.72544861 112.12698364 C-97.72544861 111.79698364 -97.72544861 111.46698364 -97.72544861 111.12698364 C-67.69544861 111.12698364 -37.66544861 111.12698364 -6.72544861 111.12698364 C-6.73705017 103.19796021 -6.74865173 95.26893677 -6.76060486 87.09963989 C-6.76571141 82.09117554 -6.77052517 77.08271437 -6.77427673 72.07424927 C-6.78026595 64.11599031 -6.78736833 56.15774337 -6.80088806 48.19949341 C-6.81171432 41.78695487 -6.81772488 35.3744286 -6.82032585 28.96188164 C-6.82218057 26.50934086 -6.82580208 24.0568008 -6.83117867 21.60426521 C-6.83838562 18.18221687 -6.8394397 14.76021993 -6.838974 11.33816528 C-6.84256927 10.31317932 -6.84616455 9.28819336 -6.84986877 8.23214722 C-6.84849411 7.30521561 -6.84711945 6.378284 -6.84570312 5.42326355 C-6.84662492 4.61300752 -6.84754671 3.80275148 -6.84849644 2.96794224 C-6.57720443 -1.09094576 -3.35842605 0.00116392 0 0 Z " fill="#DDB743" transform="translate(438.72544860839844,10.873016357421875)"/>
<path d="M0 0 C0.33 0 0.66 0 1 0 C1.02332753 19.67068178 1.04097845 39.34136076 1.05181217 59.01205349 C1.05697544 68.14484048 1.06401872 77.2776189 1.07543945 86.41040039 C1.08538535 94.36757874 1.0918532 102.32475088 1.09408849 110.28193527 C1.09539576 114.49785986 1.09848262 118.71376668 1.10573006 122.92968559 C1.11248879 126.89322184 1.11461726 130.85673289 1.11310768 134.82027435 C1.11338408 136.27922006 1.11539007 137.73816657 1.11920547 139.19710732 C1.12414036 141.18046595 1.12239811 143.16383792 1.12025452 145.14720154 C1.12163721 146.81610774 1.12163721 146.81610774 1.12304783 148.51872921 C1 151 1 151 0 152 C-1.77234234 152.09742491 -3.54861434 152.12371438 -5.32363224 152.12304783 C-7.0665749 152.1260344 -7.0665749 152.1260344 -8.84472853 152.12908131 C-10.13750147 152.12616847 -11.43027441 152.12325563 -12.76222229 152.12025452 C-14.13664407 152.1206901 -15.51106577 152.12156476 -16.88548702 152.12284368 C-20.67996225 152.12509122 -24.47440953 152.12106385 -28.2688812 152.11606562 C-32.35410971 152.111765 -36.43933652 152.11320727 -40.52456665 152.1139679 C-47.60837239 152.11449338 -54.69216894 152.11134405 -61.77597237 152.10573006 C-72.01808382 152.09761833 -82.26019082 152.09500017 -92.50230514 152.09374207 C-109.11766884 152.09155103 -125.73302764 152.08488955 -142.34838867 152.07543945 C-158.49291967 152.06626667 -174.63744934 152.05918518 -190.78198242 152.05493164 C-191.77638923 152.05466892 -192.77079603 152.05440619 -193.79533637 152.05413551 C-198.78376146 152.05283051 -203.77218655 152.0515668 -208.76061165 152.05032361 C-250.17374451 152.03994939 -291.58687198 152.02232967 -333 152 C-333 151.01 -333 150.02 -333 149 C-242.58 148.67 -152.16 148.34 -59 148 C-58.67 146.68 -58.34 145.36 -58 144 C-58 145.32 -58 146.64 -58 148 C-29.785 147.505 -29.785 147.505 -1 147 C-1.00785522 140.80005249 -1.00785522 140.80005249 -1.01586914 134.47485352 C-1.03244526 120.81237556 -1.04353834 107.14989776 -1.05181217 93.48741245 C-1.0569618 85.20457508 -1.06397906 76.92174726 -1.07543945 68.63891602 C-1.08542706 61.4170587 -1.09186312 54.1952083 -1.09408849 46.97334427 C-1.09538868 43.15175675 -1.09843062 39.33018902 -1.10573006 35.50860786 C-1.11255466 31.90618737 -1.11460394 28.30379468 -1.11310768 24.70136833 C-1.11351078 22.76005574 -1.11887225 20.81874612 -1.12442017 18.87744141 C-1.11694664 12.49742841 -0.85534675 6.32418543 0 0 Z " fill="#7E8F42" transform="translate(582,305)"/>
<path d="M0 0 C0.8971875 0.5259375 0.8971875 0.5259375 1.8125 1.0625 C4.10813214 2.33304698 4.10813214 2.33304698 7 1 C6 3 5 5 4 7 C4.928125 7.4640625 4.928125 7.4640625 5.875 7.9375 C7.25 8.625 8.625 9.3125 10 10 C9.67 10.99 9.34 11.98 9 13 C8.01 12.67 7.02 12.34 6 12 C5.67 13.32 5.34 14.64 5 16 C6.32 16.99 7.64 17.98 9 19 C8.67 20.32 8.34 21.64 8 23 C8.66 23 9.32 23 10 23 C10.33 22.34 10.66 21.68 11 21 C12.32 21.66 13.64 22.32 15 23 C14.34 23.33 13.68 23.66 13 24 C12.63451555 25.32488113 12.3062434 26.66018514 12 28 C11.36345658 29.3479743 10.70394612 30.68596724 10 32 C9.566875 31.505 9.13375 31.01 8.6875 30.5 C7.00259517 28.66781808 7.00259517 28.66781808 4 29 C3.67 29.99 3.34 30.98 3 32 C3.99 32.33 4.98 32.66 6 33 C5.67 33.66 5.34 34.32 5 35 C4.34 35 3.68 35 3 35 C3 35.99 3 36.98 3 38 C3.99 38 4.98 38 6 38 C6 37.34 6 36.68 6 36 C6.99 36.33 7.98 36.66 9 37 C9.19466332 38.79090253 9.38051213 40.58276505 9.5625 42.375 C9.66691406 43.37273437 9.77132813 44.37046875 9.87890625 45.3984375 C10 48 10 48 9 50 C9.99 50.33 10.98 50.66 12 51 C12 53.33333333 12 55.66666667 12 58 C12.02320313 58.63292969 12.04640625 59.26585937 12.0703125 59.91796875 C12.19448505 65.07112937 11.59730215 69.10826215 10 74 C10 74.66 10 75.32 10 76 C10.99 76.33 11.98 76.66 13 77 C12.505 77.495 12.505 77.495 12 78 C12.99 78.33 13.98 78.66 15 79 C14.67 80.0725 14.34 81.145 14 82.25 C12.8282249 85.99731601 12.8282249 85.99731601 13 90 C13 92.66666667 13 95.33333333 13 98 C13.99 98.33 14.98 98.66 16 99 C15 102 15 102 12.9375 103.1875 C11.9784375 103.5896875 11.9784375 103.5896875 11 104 C11 104.99 11 105.98 11 107 C12.485 106.505 12.485 106.505 14 106 C14.495 105.01 14.495 105.01 15 104 C16.32 104 17.64 104 19 104 C19.33 105.32 19.66 106.64 20 108 C13.07 108 6.14 108 -1 108 C-0.67 106.35 -0.34 104.7 0 103 C-0.33 102.67 -0.66 102.34 -1 102 C-1.08869591 99.13903227 -1.11520054 96.30232437 -1.09765625 93.44140625 C-1.0962413 92.58191879 -1.09482635 91.72243134 -1.09336853 90.8368988 C-1.08775267 88.07873109 -1.07520371 85.32064332 -1.0625 82.5625 C-1.0574865 80.7050793 -1.05292333 78.84765733 -1.04882812 76.99023438 C-1.03759156 72.3267947 -1.01951972 67.6634117 -1 63 C-1 60.42698062 -1.00853689 57.8540155 -1.01586914 55.28100586 C-1.03191288 49.32682781 -1.04345669 43.3726565 -1.05181217 37.41846371 C-1.05704626 33.8124108 -1.06415756 30.20638126 -1.07543945 26.6003418 C-1.08627009 23.11619905 -1.09227678 19.63207888 -1.09487724 16.14792061 C-1.09763363 14.16858803 -1.10544417 12.1892646 -1.11329651 10.20994568 C-1.11340981 8.41787437 -1.11340981 8.41787437 -1.11352539 6.58959961 C-1.115746 5.53195908 -1.11796661 4.47431854 -1.12025452 3.3846283 C-1 1 -1 1 0 0 Z " fill="#D48005" transform="translate(494,345)"/>
<path d="M0 0 C1.77310703 -0.00067474 3.54621397 -0.00164618 5.31932068 -0.00289917 C9.01147351 -0.00436468 12.70360197 -0.00225638 16.39575195 0.00244141 C21.13373757 0.00817585 25.87166699 0.00482916 30.60965061 -0.00113106 C34.25980558 -0.00473565 37.9099471 -0.00359921 41.56010246 -0.00100327 C43.30846094 -0.00033566 45.05682063 -0.00115663 46.80517769 -0.00348282 C49.23676962 -0.00601171 51.66826855 -0.00216712 54.09985352 0.00341797 C55.18523407 0.00038162 55.18523407 0.00038162 56.2925415 -0.00271606 C61.26754864 0.01853995 61.26754864 0.01853995 63.49609375 1.1328125 C64.12109375 3.6953125 64.12109375 3.6953125 64.49609375 6.1328125 C63.99881775 5.97204727 63.50154175 5.81128204 62.98919678 5.64564514 C59.53624868 4.93537185 56.11695305 4.95468245 52.60644531 4.92749023 C51.81582199 4.91759064 51.02519867 4.90769104 50.21061707 4.89749146 C47.60268121 4.86595589 44.99472715 4.84115049 42.38671875 4.81640625 C40.57639091 4.79582986 38.7660678 4.77483321 36.95574951 4.75343323 C32.19484289 4.6982833 27.43389341 4.64884283 22.6729126 4.60058594 C17.81315301 4.5503192 12.95345553 4.49466014 8.09375 4.43945312 C-1.43874901 4.33195814 -10.97130198 4.23049397 -20.50390625 4.1328125 C-20.83390625 4.7928125 -21.16390625 5.4528125 -21.50390625 6.1328125 C-23.15390625 5.8028125 -24.80390625 5.4728125 -26.50390625 5.1328125 C-26.50813819 5.80288236 -26.51237013 6.47295221 -26.51673031 7.16332722 C-26.62228107 23.84387392 -26.73114457 40.52439588 -26.84324551 57.20489979 C-26.89739575 65.27306557 -26.95059996 73.34123507 -27.0012207 81.40942383 C-27.27949497 125.65496916 -27.76183066 169.89250565 -28.50390625 214.1328125 C-29.16390625 213.8028125 -29.82390625 213.4728125 -30.50390625 213.1328125 C-30.53484834 195.23698792 -30.55509885 177.34115992 -30.56640625 159.4453125 C-30.56684055 158.77782659 -30.56727486 158.11034068 -30.56772232 157.42262793 C-30.592456 118.34412891 -30.46676786 79.27167456 -30.00390625 40.1953125 C-29.99194843 39.18510166 -29.97999062 38.17489082 -29.96767044 37.13406754 C-29.82460513 25.13349135 -29.67079185 13.13308118 -29.50390625 1.1328125 C-19.67470274 -0.06569376 -9.88287907 -0.01330853 0 0 Z " fill="#F5EBA5" transform="translate(278.50390625,231.8671875)"/>
<path d="M0 0 C1.0904811 0.00092179 2.1809622 0.00184359 3.30448818 0.00279331 C4.55115765 0.00141865 5.79782711 0.00004398 7.08227444 -0.00137234 C8.47653127 0.00216727 9.87078785 0.00580209 11.26504421 0.00952244 C12.72330123 0.0098043 14.18155839 0.00964659 15.63981533 0.00907993 C19.61071618 0.00879193 23.58158708 0.01468906 27.55248094 0.02165389 C31.69783233 0.02788702 35.84318434 0.02849119 39.9885397 0.0296793 C47.84377459 0.03279274 55.69899564 0.04100629 63.55422443 0.05102879 C72.49482531 0.06218954 81.43542684 0.06770028 90.37603295 0.07272422 C108.77255694 0.0831889 127.16906802 0.10078858 145.56558132 0.12304783 C145.89558132 1.11304783 146.22558132 2.10304783 146.56558132 3.12304783 C97.72558132 3.12304783 48.88558132 3.12304783 -1.43441868 3.12304783 C-1.43441868 39.09304783 -1.43441868 75.06304783 -1.43441868 112.12304783 C-32.12441868 112.12304783 -62.81441868 112.12304783 -94.43441868 112.12304783 C-94.43441868 111.79304783 -94.43441868 111.46304783 -94.43441868 111.12304783 C-64.40441868 111.12304783 -34.37441868 111.12304783 -3.43441868 111.12304783 C-3.44602024 103.19402439 -3.4576218 95.26500095 -3.46957493 87.09570408 C-3.47468148 82.08723972 -3.47949524 77.07877856 -3.4832468 72.07031345 C-3.48923602 64.1120545 -3.4963384 56.15380755 -3.50985813 48.19555759 C-3.52068439 41.78301906 -3.52669495 35.37049279 -3.52929592 28.95794582 C-3.53115064 26.50540505 -3.53477215 24.05286498 -3.54014874 21.6003294 C-3.54735569 18.17828106 -3.54840977 14.75628412 -3.54794407 11.33422947 C-3.55153934 10.30924351 -3.55513462 9.28425755 -3.55883884 8.2282114 C-3.55746418 7.30127979 -3.55608952 6.37434818 -3.55467319 5.41932774 C-3.55559499 4.6090717 -3.55651678 3.79881567 -3.55746651 2.96400642 C-3.36595239 0.09870147 -2.87273996 0.1452028 0 0 Z " fill="#6E8630" transform="translate(435.4344186782837,10.876952171325684)"/>
<path d="M0 0 C0.66 0 1.32 0 2 0 C7.77210154 20.76246741 3.72243658 46.63979466 3 68 C3.66 68.33 4.32 68.66 5 69 C4.34 69 3.68 69 3 69 C3.0707373 69.77279297 3.14147461 70.54558594 3.21435547 71.34179688 C4.02330447 81.17429478 4.15369933 90.94353166 4.13037109 100.80419922 C4.12500832 103.4958255 4.13035095 106.18728498 4.13671875 108.87890625 C4.14007944 118.63564857 3.88997753 128.2771475 3 138 C3.99 138.33 4.98 138.66 6 139 C5.34 139.33 4.68 139.66 4 140 C3.97532391 145.51757479 3.95715144 151.03511761 3.94506836 156.55273438 C3.94003237 158.43066975 3.93320329 160.3086012 3.92456055 162.18652344 C3.91246287 164.88217132 3.90676443 167.57776747 3.90234375 170.2734375 C3.89718246 171.11619232 3.89202118 171.95894714 3.88670349 172.82723999 C3.76632961 177.04731361 3.76632961 177.04731361 5 181 C4.34 181 3.68 181 3 181 C3.495 183.475 3.495 183.475 4 186 C2.68 186 1.36 186 0 186 C0 124.62 0 63.24 0 0 Z " fill="#B46B00" transform="translate(490,268)"/>
<path d="M0 0 C0.33 0 0.66 0 1 0 C1.00634791 1.12370451 1.00634791 1.12370451 1.01282406 2.27011013 C1.13547091 23.95822239 1.26062896 45.64631957 1.38733763 67.33440846 C1.42072454 73.05191008 1.45389165 78.76941293 1.48689461 84.48691678 C1.71413166 123.83432157 1.94486921 163.18152833 2.3042891 202.52798295 C2.3240661 204.6980941 2.34364324 206.86820695 2.36314964 209.03832054 C2.48271086 222.33504905 2.60564507 235.63172444 2.74477482 248.92826557 C2.79364514 253.68924626 2.83835465 258.45025987 2.88207436 263.21129036 C2.90303839 265.38196875 2.92593639 267.55262953 2.95097923 269.72326469 C2.98474836 272.65581757 3.01193689 275.58836272 3.03759766 278.52099609 C3.04897483 279.35809585 3.060352 280.1951956 3.07207394 281.05766201 C3.09884697 284.83395539 2.98713461 288.48901591 2.51048279 292.23683167 C1.75839208 298.37272655 1.82292418 304.51551444 1.79467773 310.68969727 C1.78508016 312.0506163 1.77506903 313.41153247 1.76467896 314.77244568 C1.7378272 318.44119875 1.71671186 322.10996442 1.69667697 325.77876019 C1.67469455 329.62246276 1.64736626 333.46612735 1.62062073 337.30979919 C1.57085855 344.57683511 1.52585914 351.84389228 1.48259836 359.11096948 C1.43308449 367.38915943 1.37821918 375.66731125 1.32291877 383.94546425 C1.20935189 400.96360753 1.10245854 417.98178629 1 435 C0.67 435 0.34 435 0 435 C-0.6022102 424.91297907 -1.13026626 414.89333681 -0.9375 404.78515625 C-0.99278143 402.32167771 -1.27759339 400.34217769 -2 398 C-1.67 398 -1.34 398 -1 398 C-0.67 266.66 -0.34 135.32 0 0 Z " fill="#D99718" transform="translate(580,17)"/>
<path d="M0 0 C30.36 0 60.72 0 92 0 C92.495 0.99 92.495 0.99 93 2 C62.97 2 32.94 2 2 2 C2 11.24 2 20.48 2 30 C1.94115463 36.74530721 1.87331327 43.489579 1.78125 50.234375 C1.75867317 51.98797407 1.73625688 53.7415752 1.71398926 55.49517822 C1.65638284 59.99932995 1.59667241 64.50345111 1.53643799 69.00756836 C1.47477834 73.64825744 1.41522676 78.28897361 1.35546875 82.9296875 C1.23897832 91.95315182 1.12025291 100.97658509 1 110 C0.34 110 -0.32 110 -1 110 C-1.02335084 96.10074875 -1.04092348 82.20150053 -1.05181217 68.3022337 C-1.0570374 61.84869902 -1.06412856 55.3951775 -1.07543945 48.94165039 C-1.08628106 42.71713443 -1.09227956 36.49263114 -1.09487724 30.26810646 C-1.09672918 27.88978692 -1.1003454 25.51146809 -1.10573006 23.13315392 C-1.11295733 19.80970113 -1.11399022 16.48630114 -1.11352539 13.1628418 C-1.11712067 12.1730986 -1.12071594 11.18335541 -1.12442017 10.16362 C-1.1230455 9.25918152 -1.12167084 8.35474304 -1.12025452 7.42289734 C-1.12117631 6.63660792 -1.1220981 5.85031851 -1.12304783 5.04020214 C-1 3 -1 3 0 0 Z " fill="#BFC15B" transform="translate(341,123)"/>
<path d="M0 0 C0.33 0 0.66 0 1 0 C1 4.62 1 9.24 1 14 C-105.92 13.67 -212.84 13.34 -323 13 C-323 13.66 -323 14.32 -323 15 C-326.3 15 -329.6 15 -333 15 C-333 14.01 -333 13.02 -333 12 C-223.11 12 -113.22 12 0 12 C0 8.04 0 4.08 0 0 Z " fill="#92842C" transform="translate(582,442)"/>
<path d="M0 0 C1.32 0.66 2.64 1.32 4 2 C4 3.98 4 5.96 4 8 C3.01 8 2.02 8 1 8 C1 111.29 1 214.58 1 321 C0.67 321 0.34 321 0 321 C-0.150277 280.2509327 -0.29530565 239.50184984 -0.4332476 198.75273884 C-0.44951954 193.94721964 -0.46583514 189.1417006 -0.48217773 184.33618164 C-0.48543066 183.37944722 -0.48868358 182.42271281 -0.49203508 181.43698644 C-0.54488241 165.92445434 -0.60127142 150.41193701 -0.6589582 134.89942224 C-0.71802581 118.99450467 -0.77331315 103.08957725 -0.82505554 87.18463415 C-0.85713038 77.36219985 -0.89219069 67.53978538 -0.93101191 57.71737539 C-0.95731356 50.99131582 -0.97995943 44.26525028 -0.99967117 37.53916819 C-1.01117129 33.65254271 -1.02433993 29.76594084 -1.04183006 25.87933731 C-1.0607046 21.67579348 -1.07190983 17.47226537 -1.08229065 13.26869202 C-1.08909444 12.0265014 -1.09589823 10.78431079 -1.10290819 9.50447804 C-1.10440054 8.3878004 -1.10589289 7.27112277 -1.10743046 6.12060642 C-1.11084794 5.1489021 -1.11426542 4.17719777 -1.11778647 3.17604786 C-1 1 -1 1 0 0 Z " fill="#C58106" transform="translate(489,133)"/>
<path d="M0 0 C0.66 1.32 1.32 2.64 2 4 C4.05000871 4.80528889 4.05000871 4.80528889 6 5 C6 5.99 6 6.98 6 8 C6.66 8 7.32 8 8 8 C7.125 12.875 7.125 12.875 6 14 C6.66 14.33 7.32 14.66 8 15 C8.625 17.5625 8.625 17.5625 9 20 C8.01 20.33 7.02 20.66 6 21 C6 21.99 6 22.98 6 24 C5.34 24 4.68 24 4 24 C4 24.66 4 25.32 4 26 C2.5 27.625 2.5 27.625 1 29 C2.65 28.67 4.3 28.34 6 28 C6 28.66 6 29.32 6 30 C6.66 30.33 7.32 30.66 8 31 C7.34 31.66 6.68 32.32 6 33 C6.165 33.804375 6.33 34.60875 6.5 35.4375 C7 38 7 38 5 41 C6.32 41 7.64 41 9 41 C9 41.66 9 42.32 9 43 C8.34 43 7.68 43 7 43 C7 43.99 7 44.98 7 46 C3.535 46.495 3.535 46.495 0 47 C0 31.49 0 15.98 0 0 Z " fill="#D68205" transform="translate(493,297)"/>
<path d="M0 0 C0.33 0.99 0.66 1.98 1 3 C1.99 3 2.98 3 4 3 C4.66 4.65 5.32 6.3 6 8 C5.34 8 4.68 8 4 8 C4.185625 9.0725 4.37125 10.145 4.5625 11.25 C5.14964371 16.28266033 5.14964371 16.28266033 4 19 C3.34 19.33 2.68 19.66 2 20 C3.32 20.66 4.64 21.32 6 22 C5.34 22.99 4.68 23.98 4 25 C4.144375 25.5775 4.28875 26.155 4.4375 26.75 C5.24361191 29.97444762 4.56055335 32.76124729 4 36 C4.66 36 5.32 36 6 36 C6 36.66 6 37.32 6 38 C5.34 38 4.68 38 4 38 C5.30155006 42.07964281 5.30155006 42.07964281 7 46 C6.25 48.5625 6.25 48.5625 5 51 C3.515 51.495 3.515 51.495 2 52 C2 52.66 2 53.32 2 54 C2.99 54.33 3.98 54.66 5 55 C4.67 56.32 4.34 57.64 4 59 C2.68 59 1.36 59 0 59 C0 39.53 0 20.06 0 0 Z " fill="#D68407" transform="translate(493,237)"/>
<path d="M0 0 C1.74793619 3.00816668 2.21372507 4.96934376 1.97875977 8.42773438 C1.92743393 9.31916138 1.87610809 10.21058838 1.82322693 11.12902832 C1.7591011 12.10738647 1.69497528 13.08574463 1.62890625 14.09375 C1.08156401 24.32819512 0.89251622 34.53526949 0.90234375 44.78125 C0.90272266 45.50202728 0.90310158 46.22280457 0.90349197 46.96542358 C0.90690478 51.39131857 0.91791492 55.8171675 0.93133545 60.24304199 C0.94177639 64.06566798 0.94617637 67.8883012 0.95117188 71.7109375 C0.96172778 79.14064388 0.97867201 86.57031587 1 94 C2.485 93.505 2.485 93.505 4 93 C4.66 93.33 5.32 93.66 6 94 C7.85239885 94.14202762 9.70938698 94.22617947 11.56640625 94.28125 C13.25540039 94.33732422 13.25540039 94.33732422 14.97851562 94.39453125 C16.16123047 94.42933594 17.34394531 94.46414062 18.5625 94.5 C26.09522737 94.72686407 33.52158711 95.04225235 41 96 C41 96.33 41 96.66 41 97 C35.34000977 97.02467467 29.68005068 97.04284788 24.02001953 97.05493164 C22.09358169 97.05996787 20.16714769 97.06679712 18.24072266 97.07543945 C15.47557632 97.08753608 12.71048042 97.09323533 9.9453125 97.09765625 C8.6483696 97.10539818 8.6483696 97.10539818 7.32522583 97.11329651 C1.22774341 97.11387171 1.22774341 97.11387171 -1 96 C-1.02330882 85.6979772 -1.04100866 75.39596082 -1.05181217 65.09391689 C-1.05700082 60.30877682 -1.06402425 55.52365498 -1.07543945 50.73852539 C-1.08641268 46.10898221 -1.09230698 41.4794564 -1.09487724 36.8499012 C-1.09670576 35.09553822 -1.10027547 33.34117605 -1.10573006 31.5868206 C-1.13727185 21.00831422 -0.87109454 10.54628752 0 0 Z " fill="#F3D448" transform="translate(343,138)"/>
<path d="M0 0 C0.33 0 0.66 0 1 0 C1 24.42 1 48.84 1 74 C49.18 74 97.36 74 147 74 C147 74.33 147 74.66 147 75 C97.83 75.33 48.66 75.66 -2 76 C-1.67 73.03 -1.34 70.06 -1 67 C-0.89573566 64.61058792 -0.82644306 62.21935574 -0.79467773 59.82788086 C-0.78477814 59.17307739 -0.77487854 58.51827393 -0.76467896 57.84362793 C-0.73353877 55.71740105 -0.70849834 53.59115197 -0.68359375 51.46484375 C-0.66298298 49.97554502 -0.64198556 48.4862516 -0.62062073 46.9969635 C-0.56582518 43.10580788 -0.51623121 39.21460327 -0.46777344 35.32336426 C-0.41724487 31.34118365 -0.36172367 27.35907287 -0.30664062 23.37695312 C-0.19958035 15.5846948 -0.09802305 7.79237781 0 0 Z " fill="#EFDA5D" transform="translate(250,379)"/>
<path d="M0 0 C2.00720923 0.28674418 4.0085944 0.61866701 6 1 C6.495 3.475 6.495 3.475 7 6 C6.502724 5.83923477 6.005448 5.67846954 5.49310303 5.51283264 C2.04015493 4.80255935 -1.3791407 4.82186995 -4.88964844 4.79467773 C-5.68027176 4.78477814 -6.47089508 4.77487854 -7.28547668 4.76467896 C-9.89341254 4.73314339 -12.5013666 4.70833799 -15.109375 4.68359375 C-16.91970284 4.66301736 -18.73002595 4.64202071 -20.54034424 4.62062073 C-25.30125086 4.5654708 -30.06220034 4.51603033 -34.82318115 4.46777344 C-39.68294074 4.4175067 -44.54263822 4.36184764 -49.40234375 4.30664062 C-58.93484276 4.19914564 -68.46739573 4.09768147 -78 4 C-78.33 4.66 -78.66 5.32 -79 6 C-80.65 5.67 -82.3 5.34 -84 5 C-84.33 4.01 -84.66 3.02 -85 2 C-83.94986221 1.98969254 -82.89972443 1.97938507 -81.81776428 1.96876526 C-71.9434829 1.87120459 -62.06926698 1.76848742 -52.1950922 1.66066074 C-47.11812116 1.60538726 -42.04114441 1.55196033 -36.96411133 1.50268555 C-32.06874337 1.45510709 -27.17344779 1.40276692 -22.27816582 1.34705925 C-20.40619129 1.32660605 -18.5341969 1.30789799 -16.66218758 1.29092598 C-14.04953924 1.26694732 -11.43702903 1.23688426 -8.82446289 1.20532227 C-8.04259613 1.1995668 -7.26072937 1.19381134 -6.45516968 1.18788147 C-2.93323772 1.45906574 -2.93323772 1.45906574 0 0 Z " fill="#F9E37A" transform="translate(336,232)"/>
<path d="M0 0 C48.84 0 97.68 0 148 0 C148 0.33 148 0.66 148 1 C102.46 1 56.92 1 10 1 C10 1.66 10 2.32 10 3 C6.7 3 3.4 3 0 3 C0 2.01 0 1.02 0 0 Z " fill="#999D45" transform="translate(249,454)"/>
<path d="M0 0 C-0.66 1.32 -1.32 2.64 -2 4 C-8.625 4.125 -8.625 4.125 -12 3 C-13.44193038 2.91377433 -14.88753115 2.88228674 -16.33203125 2.88647461 C-17.63853638 2.88658791 -17.63853638 2.88658791 -18.97143555 2.88670349 C-20.37776245 2.89444542 -20.37776245 2.89444542 -21.8125 2.90234375 C-22.77776611 2.9037587 -23.74303223 2.90517365 -24.73754883 2.90663147 C-27.82506398 2.91223135 -30.91250678 2.92477549 -34 2.9375 C-36.08072811 2.94251575 -38.16145737 2.94707853 -40.2421875 2.95117188 C-44.82448374 2.96101079 -49.40674269 2.9752264 -53.98901367 2.99327087 C-57.58600574 3.00530706 -61.17369351 2.94779495 -64.76953125 2.859375 C-67.11717451 2.82208968 -69.4648316 2.78566724 -71.8125 2.75 C-72.98876953 2.71648437 -74.16503906 2.68296875 -75.37695312 2.6484375 C-81.92970804 2.57435322 -86.0209699 2.57043841 -91 7 C-91.99 7.495 -91.99 7.495 -93 8 C-93 5.69 -93 3.38 -93 1 C-81.16961621 0.86948735 -69.33923113 0.7390922 -57.50884438 0.60884857 C-52.01598675 0.54837263 -46.52312959 0.48785566 -41.03027344 0.42724609 C-35.73295571 0.36879564 -30.43563683 0.31045143 -25.13831711 0.25218201 C-23.11364068 0.22989209 -21.08896467 0.20756339 -19.06428909 0.18519592 C-16.23638264 0.15396133 -13.40847472 0.12286257 -10.58056641 0.09179688 C-9.31497643 0.07777077 -9.31497643 0.07777077 -8.02381897 0.0634613 C-2.22810432 0 -2.22810432 0 0 0 Z " fill="#F5D848" transform="translate(436,124)"/>
<path d="M0 0 C0.33 0 0.66 0 1 0 C1 24.42 1 48.84 1 74 C5.95 74 10.9 74 16 74 C16 74.33 16 74.66 16 75 C10.06 75.33 4.12 75.66 -2 76 C-1.84152588 74.8354126 -1.68305176 73.6708252 -1.51977539 72.47094727 C-0.74847529 65.4898276 -0.76575892 58.4799558 -0.68359375 51.46484375 C-0.66298298 49.97554502 -0.64198556 48.4862516 -0.62062073 46.9969635 C-0.56582518 43.10580788 -0.51623121 39.21460327 -0.46777344 35.32336426 C-0.41724487 31.34118365 -0.36172367 27.35907287 -0.30664062 23.37695312 C-0.19958035 15.5846948 -0.09802305 7.79237781 0 0 Z " fill="#F3DF6D" transform="translate(250,379)"/>
<path d="M0 0 C1.67542976 0.28604898 3.34385343 0.61781233 5 1 C5 1.66 5 2.32 5 3 C-24.7 3 -54.4 3 -85 3 C-85 2.67 -85 2.34 -85 2 C-83.94986221 1.98969254 -82.89972443 1.97938507 -81.81776428 1.96876526 C-71.9434829 1.87120459 -62.06926698 1.76848742 -52.1950922 1.66066074 C-47.11812116 1.60538726 -42.04114441 1.55196033 -36.96411133 1.50268555 C-32.06874337 1.45510709 -27.17344779 1.40276692 -22.27816582 1.34705925 C-20.40619129 1.32660605 -18.5341969 1.30789799 -16.66218758 1.29092598 C-14.04953924 1.26694732 -11.43702903 1.23688426 -8.82446289 1.20532227 C-8.04259613 1.1995668 -7.26072937 1.19381134 -6.45516968 1.18788147 C-2.93323772 1.45906574 -2.93323772 1.45906574 0 0 Z " fill="#F2E888" transform="translate(336,232)"/>
<path d="M0 0 C0.66 0 1.32 0 2 0 C1.67 1.98 1.34 3.96 1 6 C1.99 5.67 2.98 5.34 4 5 C5.125 8.75 5.125 8.75 4 11 C4.66 11 5.32 11 6 11 C6.75 12.5625 6.75 12.5625 7 15 C4.95279688 19.09440624 2.76018895 22.31974806 0 26 C0 17.42 0 8.84 0 0 Z " fill="#E08A05" transform="translate(493,149)"/>
<path d="M0 0 C0.33 0 0.66 0 1 0 C1.04960315 5.15949111 1.08581559 10.318842 1.10986328 15.47851562 C1.11989313 17.23212097 1.13352029 18.9857097 1.15087891 20.73925781 C1.1752603 23.26631785 1.1865134 25.7931559 1.1953125 28.3203125 C1.20563507 29.09867462 1.21595764 29.87703674 1.22659302 30.6789856 C1.2275122 35.18365862 0.70651048 38.75439088 -1 43 C-2.44824657 40.10350685 -2.12985014 37.5728336 -2.1328125 34.33984375 C-2.13376923 33.67594131 -2.13472595 33.01203888 -2.13571167 32.32801819 C-2.13639295 30.91830348 -2.1345423 29.50858565 -2.13037109 28.09887695 C-2.12508111 25.97014022 -2.1302868 23.84162025 -2.13671875 21.71289062 C-2.14060788 14.74735912 -2.07218438 7.89369251 -1 1 C-0.67 0.67 -0.34 0.34 0 0 Z " fill="#F7E892" transform="translate(250,316)"/>
<path d="M0 0 C0.33 0 0.66 0 1 0 C2.05736038 13.00930892 2.11145896 25.95415744 2 39 C2.66 39 3.32 39 4 39 C3.6875 42.375 3.6875 42.375 3 46 C2.01 46.66 1.02 47.32 0 48 C0 32.16 0 16.32 0 0 Z " fill="#D8860A" transform="translate(493,177)"/>
<path d="M0 0 C1.33437363 0.32914422 2.66744488 0.66356912 4 1 C5.9181365 1.13469133 7.83972161 1.22366207 9.76171875 1.28125 C10.88126953 1.31863281 12.00082031 1.35601562 13.15429688 1.39453125 C14.32025391 1.42933594 15.48621094 1.46414062 16.6875 1.5 C24.17860951 1.72738612 31.56269895 2.04954619 39 3 C39 3.33 39 3.66 39 4 C25.8 4 12.6 4 -1 4 C-1 1 -1 1 0 0 Z " fill="#FAD33D" transform="translate(345,231)"/>
<path d="M0 0 C1.32 0.66 2.64 1.32 4 2 C4 3.98 4 5.96 4 8 C3.01 8 2.02 8 1 8 C1 15.59 1 23.18 1 31 C0.67 31 0.34 31 0 31 C-0.16727437 26.74607233 -0.32786758 22.49196191 -0.48217773 18.23754883 C-0.53566237 16.78923699 -0.59099659 15.34099225 -0.64819336 13.89282227 C-0.72992512 11.81541418 -0.80507768 9.7378583 -0.87890625 7.66015625 C-0.9260376 6.40855713 -0.97316895 5.15695801 -1.02172852 3.86743164 C-1 1 -1 1 0 0 Z " fill="#CF8F0F" transform="translate(489,133)"/>
<path d="M0 0 C2.475 0.495 2.475 0.495 5 1 C5 1.99 5 2.98 5 4 C5.99 3.67 6.98 3.34 8 3 C8.76776475 7.0752634 9.11902034 10.91005447 9.09765625 15.0546875 C9.09443359 16.16328125 9.09121094 17.271875 9.08789062 18.4140625 C9.07951172 19.55617187 9.07113281 20.69828125 9.0625 21.875 C9.05798828 23.0403125 9.05347656 24.205625 9.04882812 25.40625 C9.03708781 28.27088645 9.0206657 31.13541633 9 34 C8.67 34 8.34 34 8 34 C7.67 25.09 7.34 16.18 7 7 C6.01 6.67 5.02 6.34 4 6 C2.60287726 4.04402816 1.26220093 2.04563599 0 0 Z " fill="#F9C928" transform="translate(389,236)"/>
<path d="M0 0 C8.58 0 17.16 0 26 0 C26 0.33 26 0.66 26 1 C20.72 1 15.44 1 10 1 C10 1.66 10 2.32 10 3 C6.7 3 3.4 3 0 3 C0 2.01 0 1.02 0 0 Z " fill="#8A9754" transform="translate(249,454)"/>
<path d="M0 0 C1.76462683 3.08809695 2 4.23312136 2 8 C0.5 10.25 0.5 10.25 -1 12 C-1.66 11.01 -2.32 10.02 -3 9 C-6.06556598 8.26656572 -6.06556598 8.26656572 -9 8 C-9 7.67 -9 7.34 -9 7 C-6.69 7 -4.38 7 -2 7 C-1.34 4.69 -0.68 2.38 0 0 Z " fill="#CE7901" transform="translate(505,425)"/>
<path d="M0 0 C-0.66 1.98 -1.32 3.96 -2 6 C-3.32 6 -4.64 6 -6 6 C-6 5.34 -6 4.68 -6 4 C-6.66 4 -7.32 4 -8 4 C-8 3.01 -8 2.02 -8 1 C-5.29120665 -0.35439668 -2.99066732 -0.06501451 0 0 Z " fill="#F29F03" transform="translate(444,110)"/>
<path d="M0 0 C0 1.32 0 2.64 0 4 C-4.29 3.34 -8.58 2.68 -13 2 C-8.34136785 -0.32931608 -5.0485768 -1.68285893 0 0 Z " fill="#F9CD2F" transform="translate(389,232)"/>
<path d="M0 0 C0.33 0 0.66 0 1 0 C1 1.98 1 3.96 1 6 C1.66 6 2.32 6 3 6 C3 6.66 3 7.32 3 8 C1.35 8.33 -0.3 8.66 -2 9 C-2.6875 7.3125 -2.6875 7.3125 -3 5 C-1.625 2.25 -1.625 2.25 0 0 Z " fill="#CE7C02" transform="translate(496,267)"/>
<path d="M0 0 C1.32 0.66 2.64 1.32 4 2 C4 3.98 4 5.96 4 8 C3.01 8 2.02 8 1 8 C1 6.68 1 5.36 1 4 C0.34 4 -0.32 4 -1 4 C-0.67 2.68 -0.34 1.36 0 0 Z " fill="#D18101" transform="translate(489,133)"/>
<path d="M0 0 C3.63 0 7.26 0 11 0 C11 0.33 11 0.66 11 1 C10.030625 1.28875 9.06125 1.5775 8.0625 1.875 C4.89335797 2.64214682 4.89335797 2.64214682 4 5 C2.68 4.67 1.36 4.34 0 4 C0 2.68 0 1.36 0 0 Z " fill="#F7AB06" transform="translate(532,16)"/>
<path d="M0 0 C0.66 0 1.32 0 2 0 C2.25 5.625 2.25 5.625 0 9 C-1.32 8.67 -2.64 8.34 -4 8 C-2.66666667 5.33333333 -1.33333333 2.66666667 0 0 Z " fill="#F29F03" transform="translate(543,111)"/>
<path d="M0 0 C2.0625 0.4375 2.0625 0.4375 4 1 C3.67 1.99 3.34 2.98 3 4 C2.34 3.67 1.68 3.34 1 3 C1.33 3.99 1.66 4.98 2 6 C0.68 5.67 -0.64 5.34 -2 5 C-1.125 1.125 -1.125 1.125 0 0 Z " fill="#C97501" transform="translate(496,362)"/>
<path d="M0 0 C0.33 1.32 0.66 2.64 1 4 C-0.65 4.66 -2.3 5.32 -4 6 C-4.33 5.01 -4.66 4.02 -5 3 C-4.67 2.34 -4.34 1.68 -4 1 C-1.9375 0.375 -1.9375 0.375 0 0 Z " fill="#E58C02" transform="translate(563,291)"/>
<path d="M0 0 C0.33 1.32 0.66 2.64 1 4 C-1.97 4 -4.94 4 -8 4 C-4.5 0 -4.5 0 0 0 Z " fill="#DB8403" transform="translate(513,449)"/>
<path d="M0 0 C0.99 0.33 1.98 0.66 3 1 C3 1.66 3 2.32 3 3 C4.65 2.67 6.3 2.34 8 2 C7.67 2.99 7.34 3.98 7 5 C4.36 4.67 1.72 4.34 -1 4 C-0.67 2.68 -0.34 1.36 0 0 Z " fill="#CB7700" transform="translate(496,389)"/>
<path d="M0 0 C2.475 0.99 2.475 0.99 5 2 C4.34 3.65 3.68 5.3 3 7 C2.34 7 1.68 7 1 7 C0.67 4.69 0.34 2.38 0 0 Z " fill="#C87503" transform="translate(494,370)"/>
<path d="M0 0 C2.475 0.495 2.475 0.495 5 1 C4.67 2.32 4.34 3.64 4 5 C2.68 5 1.36 5 0 5 C0 3.35 0 1.7 0 0 Z " fill="#D07E05" transform="translate(493,291)"/>
<path d="M0 0 C1.2065625 0.0309375 1.2065625 0.0309375 2.4375 0.0625 C1.4375 3.0625 1.4375 3.0625 -0.5 4.1875 C-1.180625 4.47625 -1.86125 4.765 -2.5625 5.0625 C-3.5525 5.5575 -3.5525 5.5575 -4.5625 6.0625 C-3.48963568 0.08511307 -3.48963568 0.08511307 0 0 Z " fill="#FBD63D" transform="translate(347.5625,125.9375)"/>
<path d="M0 0 C2.475 0.495 2.475 0.495 5 1 C5.66 2.98 6.32 4.96 7 7 C3.00003714 5.66667905 2.16217663 3.5042173 0 0 Z " fill="#F7CE32" transform="translate(389,236)"/>
<path d="M0 0 C-0.66 1.32 -1.32 2.64 -2 4 C-4.31 4 -6.62 4 -9 4 C-9 3.34 -9 2.68 -9 2 C-2.25 0 -2.25 0 0 0 Z " fill="#FBD439" transform="translate(436,124)"/>
<path d="M0 0 C0.99 0.33 1.98 0.66 3 1 C2.34 2.98 1.68 4.96 1 7 C0.34 6.67 -0.32 6.34 -1 6 C-1.042721 4.33388095 -1.04063832 2.66617115 -1 1 C-0.67 0.67 -0.34 0.34 0 0 Z " fill="#D68808" transform="translate(494,441)"/>
</svg>
