<?xml version="1.0" encoding="UTF-8"?>
<svg version="1.1" xmlns="http://www.w3.org/2000/svg" width="468" height="468">
<path d="M0 0 C2.08346994 1.27755655 2.08346994 1.27755655 5.2734375 2.484375 C13.07638003 5.98224579 19.93697638 10.76993977 26.14453125 16.62890625 C31.29619203 20.97741279 37.02319549 21.14248352 43.5559082 21.24707031 C67.75327022 21.80629336 89.73017697 29.94186672 109.86425781 42.81396484 C111.61160021 43.92671074 113.37467573 45.01468254 115.140625 46.09765625 C120.64806879 49.49105292 125.64275679 53.2356871 130.63671875 57.34375 C132.9698311 59.16510887 135.41147402 60.55024462 138.015625 61.94921875 C142.09484554 64.46276335 145.67814497 67.68756242 149.32568359 70.77929688 C150.9633917 72.16430678 152.61219639 73.53534088 154.26171875 74.90625 C164.62667214 83.5848304 174.4662858 92.83155973 183.22265625 103.15234375 C185.93068782 106.31487013 188.77010683 109.35896811 191.58984375 112.421875 C194.54132839 115.85778267 197.22278743 119.45661622 199.8984375 123.109375 C200.36886475 123.75100586 200.83929199 124.39263672 201.32397461 125.05371094 C209.09321909 135.73455743 216.21985186 146.71632786 222.8984375 158.109375 C223.53007812 159.18574219 224.16171875 160.26210937 224.8125 161.37109375 C227.00012797 165.2344663 228.85997077 168.88341538 230.203125 173.1171875 C232.18945341 179.24886945 234.87384614 185.05361338 237.5234375 190.921875 C238.05904297 192.11603027 238.59464844 193.31018555 239.14648438 194.54052734 C240.22776571 196.95015698 241.31074653 199.3590248 242.39550781 201.76708984 C243.69405753 204.65486529 244.98309049 207.5464948 246.265625 210.44140625 C253.8312169 227.47896176 261.82987709 244.33286867 270.3359375 260.921875 C270.72450928 261.69797119 271.11308105 262.47406738 271.51342773 263.27368164 C275.01754013 269.98920375 279.1627492 273.00616758 286.0859375 276.109375 C287.81070313 276.88474609 287.81070313 276.88474609 289.5703125 277.67578125 C292.30946024 278.85567235 295.05402952 279.97372176 297.8359375 281.046875 C304.40426417 283.62539419 310.65887941 286.83021594 316.8984375 290.109375 C318.0121875 290.69460938 319.1259375 291.27984375 320.2734375 291.8828125 C334.087357 299.46128223 346.81900332 309.02382179 358.8984375 319.109375 C359.68541016 319.76317139 359.68541016 319.76317139 360.48828125 320.43017578 C362.23279471 321.88146461 363.97281834 323.3379356 365.7109375 324.796875 C366.25081299 325.24885254 366.79068848 325.70083008 367.34692383 326.16650391 C370.69665946 329.00141614 373.82752808 331.97663519 376.8984375 335.109375 C377.49527344 335.68300781 378.09210938 336.25664062 378.70703125 336.84765625 C381.76921021 339.80702824 384.65609293 342.85999162 387.3359375 346.171875 C387.82964844 346.78160156 388.32335937 347.39132812 388.83203125 348.01953125 C390.24864396 350.79567704 390.07699355 353.03908202 389.8984375 356.109375 C377.82053306 360.19895889 366.00657087 362.93363942 353.375 364.70117188 C346.12237075 365.72553012 339.06202702 367.05340713 331.97192383 368.89111328 C328.77196405 369.71554072 326.24761096 370.109375 322.8984375 370.109375 C327.7960201 378.33731377 334.3782783 382.52292368 342.59765625 387.2109375 C353.44193008 393.44799914 363.00726405 400.34732054 372.31591797 408.69873047 C373.75475956 409.9813017 375.21795276 411.2364224 376.68359375 412.48828125 C381.96782565 417.05379227 386.34612851 421.91984883 390.66015625 427.40625 C392.88545089 430.09369134 395.24544094 432.45798247 397.7734375 434.859375 C402.42101259 439.40961868 404.72216016 442.87762376 405.0859375 449.546875 C404.993125 450.8153125 404.993125 450.8153125 404.8984375 452.109375 C400.89148453 450.74288305 398.2217201 448.93833973 395.0859375 446.109375 C394.29574219 445.408125 393.50554687 444.706875 392.69140625 443.984375 C390.8984375 442.109375 390.8984375 442.109375 390.8984375 440.109375 C390.08826172 439.99529297 390.08826172 439.99529297 389.26171875 439.87890625 C385.98719721 438.81265709 383.78981324 436.91762991 381.0859375 434.796875 C374.63638646 429.74903751 367.82031289 425.98572326 360.5234375 422.359375 C359.83572266 422.01358398 359.14800781 421.66779297 358.43945312 421.31152344 C354.87392667 419.53198693 351.29527937 417.82350154 347.640625 416.234375 C337.63097119 411.84169066 329.29799182 406.41762604 320.77124023 399.58886719 C318.13153337 397.50352974 315.42910122 395.50588225 312.72265625 393.50830078 C303.65249481 386.55272998 293.75759398 373.78543859 291.3359375 362.484375 C292.03805654 359.51987239 293.29078064 358.75551023 295.80444336 357.17089844 C300.44430301 354.81878117 305.48208907 353.49394828 310.4609375 352.046875 C311.66169922 351.69616943 312.86246094 351.34546387 314.09960938 350.98413086 C330.86574976 346.24834174 347.54300488 344.68458362 364.8984375 344.109375 C361.19123723 340.82209485 357.62191809 337.71696579 353.2734375 335.296875 C345.63275702 330.85327684 338.46593892 325.69442539 331.30859375 320.51953125 C330.70756836 320.08608398 330.10654297 319.65263672 329.48730469 319.20605469 C327.81517517 317.99723098 326.1476634 316.78202702 324.48046875 315.56640625 C316.54061927 310.01752768 308.57367843 305.89365478 299.4609375 302.609375 C298.42267822 302.22628174 297.38441895 301.84318848 296.31469727 301.44848633 C288.96803303 298.76904851 281.56439528 296.30747975 274.05102539 294.13671875 C261.24649817 290.33290584 254.92822277 281.83492967 248.67382812 270.46899414 C245.6670827 264.83277826 242.88904827 259.09934058 240.3125 253.25390625 C238.77583871 249.83674509 237.1656868 246.45983831 235.54833984 243.08032227 C229.75124604 230.96666089 229.75124604 230.96666089 227.8359375 225.921875 C226.22334517 221.68973222 224.20974733 217.69847242 222.1484375 213.671875 C216.76459179 203.12318317 212.15998409 192.20459809 208.0234375 181.109375 C199.97450105 161.05642125 187.2189884 143.56607034 173.88671875 126.73828125 C172.0247229 124.2763496 170.47638128 121.75726356 168.8984375 119.109375 C167.27740782 117.39828811 165.60340287 115.73684194 163.8984375 114.109375 C162.72909193 112.9453934 161.5625707 111.77856965 160.3984375 110.609375 C159.79644531 110.00867188 159.19445312 109.40796875 158.57421875 108.7890625 C157.23523976 107.44696235 155.90848655 106.09266862 154.5859375 104.734375 C151.25213666 101.47810441 147.7831855 98.38903539 144.30078125 95.29296875 C142.80899423 93.93701925 141.3453101 92.54856527 139.9296875 91.11328125 C137.56033275 88.77582166 135.04701367 86.70406083 132.4609375 84.609375 C131.53410156 83.8565625 130.60726562 83.10375 129.65234375 82.328125 C128.74355469 81.5959375 127.83476562 80.86375 126.8984375 80.109375 C126.03992188 79.41199219 125.18140625 78.71460937 124.296875 77.99609375 C120.64931763 75.12676116 116.78087878 72.64702865 112.8984375 70.109375 C111.86460937 69.41457031 110.83078125 68.71976562 109.765625 68.00390625 C101.77196877 62.68214353 93.56562489 58.19053835 84.89648438 54.06787109 C82.92188984 53.12062548 80.96443261 52.14390686 79.0078125 51.16015625 C77.74262006 50.53818183 76.47701116 49.91705366 75.2109375 49.296875 C74.11394531 48.75417969 73.01695312 48.21148437 71.88671875 47.65234375 C60.50442743 42.84982355 48.12713363 42.33514954 35.96240234 41.67895508 C26.91749469 41.17082559 19.93314838 40.36470862 12.8984375 34.109375 C12.3194873 33.60229004 11.74053711 33.09520508 11.14404297 32.57275391 C10.00685143 31.57417284 8.87061906 30.5744984 7.73535156 29.57373047 C4.21211405 26.76506771 0.26134188 24.74031337 -3.7265625 22.671875 C-4.63156494 22.20104492 -5.53656738 21.73021484 -6.46899414 21.24511719 C-12.99852363 17.95079815 -19.61596548 15.21180636 -26.5390625 12.859375 C-27.40805176 12.55974854 -28.27704102 12.26012207 -29.17236328 11.95141602 C-33.86912267 10.4502045 -37.21197271 9.75406757 -42.1015625 11.109375 C-42.8853125 11.295 -43.6690625 11.480625 -44.4765625 11.671875 C-45.0128125 11.81625 -45.5490625 11.960625 -46.1015625 12.109375 C-47.6000897 18.64840277 -46.32249776 23.41325862 -42.87280273 29.15429688 C-41.4519497 31.25866538 -39.97989472 33.31315968 -38.4765625 35.359375 C-37.94240723 36.10171387 -37.40825195 36.84405273 -36.85791016 37.60888672 C-33.78671747 41.86038812 -30.64678944 46.05646879 -27.4765625 50.234375 C-24.18334655 54.60341467 -20.99785256 59.02854805 -17.9140625 63.546875 C-17.3260083 64.38726318 -17.3260083 64.38726318 -16.72607422 65.24462891 C-9.69353662 75.70078581 -5.78015605 87.49733918 -1.97735596 99.39263916 C7.88285062 130.87523952 7.88285062 130.87523952 26.62890625 157.56640625 C31.49184188 163.01523774 32.44676844 166.70123606 32.24609375 173.890625 C31.6632105 179.28720698 29.77968769 184.04668336 27.8984375 189.109375 C16.48137833 221.55062407 14.67691701 256.47699838 28.4140625 288.66015625 C32.028285 296.13502551 35.00887612 301.70251895 42.8984375 305.109375 C42.95451172 303.92408203 42.95451172 303.92408203 43.01171875 302.71484375 C43.93007457 286.95873897 46.12261671 271.85965152 51.8984375 257.109375 C52.18203125 256.36816406 52.465625 255.62695312 52.7578125 254.86328125 C55.82646736 247.90090867 61.18436984 242.01095588 65.8984375 236.109375 C68.25 236.2578125 68.25 236.2578125 70.8984375 237.109375 C72.234375 239.5234375 72.234375 239.5234375 73.2734375 242.734375 C75.69783115 249.64838652 78.63667127 256.20932683 81.80175781 262.81445312 C83.0588835 265.44512576 84.30281506 268.0818742 85.546875 270.71875 C92.41426301 285.23728463 99.38964238 299.22724716 108.46875 312.50390625 C110.15046106 314.96859337 111.75275094 317.46667681 113.31640625 320.0078125 C124.6377902 339.4694021 124.6377902 339.4694021 140.8984375 354.109375 C140.8984375 354.769375 140.8984375 355.429375 140.8984375 356.109375 C141.4965625 356.3775 142.0946875 356.645625 142.7109375 356.921875 C144.91662783 358.11924975 146.33426937 359.15416484 147.8984375 361.109375 C147.8984375 362.099375 147.8984375 363.089375 147.8984375 364.109375 C143.33627876 363.62144358 141.24258342 361.99067696 137.9609375 358.859375 C137.09210938 358.0446875 136.22328125 357.23 135.328125 356.390625 C134.52632812 355.6378125 133.72453125 354.885 132.8984375 354.109375 C131.80417398 353.18090898 130.70202105 352.26149435 129.5859375 351.359375 C126.8984375 349.109375 126.8984375 349.109375 124.6328125 346.77734375 C121.75228136 343.96676837 118.67124652 341.58039904 115.4609375 339.171875 C107.60528719 333.12568985 100.65845506 326.34593606 93.8984375 319.109375 C93.06441406 318.21734375 92.23039063 317.3253125 91.37109375 316.40625 C82.15999067 305.8515238 75.90155878 292.68433431 69.8984375 280.109375 C69.71667969 281.09035156 69.53492188 282.07132812 69.34765625 283.08203125 C68.82131358 285.91656526 68.28743457 288.74958068 67.75 291.58203125 C67.20401973 294.46167664 66.67848025 297.34365619 66.171875 300.23046875 C62.96964401 317.70198179 62.96964401 317.70198179 55.8984375 323.109375 C49.16941569 326.3136711 41.7290533 326.01538248 34.7734375 323.671875 C29.02417809 321.10765132 25.63260224 317.05714327 21.8984375 312.109375 C21.2796875 311.31015625 20.6609375 310.5109375 20.0234375 309.6875 C13.14261365 300.37466082 9.653021 290.84344615 6.7109375 279.734375 C6.33569946 278.31765503 6.33569946 278.31765503 5.95288086 276.87231445 C2.87075213 264.71774866 1.53103508 252.95900313 1.5859375 240.421875 C1.59012695 239.10767578 1.59431641 237.79347656 1.59863281 236.43945312 C1.76067342 222.43500754 3.83410366 209.90617945 7.921875 196.50390625 C9.28165374 191.77731536 10.2394942 186.9916453 11.1875 182.16796875 C11.8984375 179.109375 11.8984375 179.109375 13.046875 176.51953125 C14.10861742 173.51450797 13.96544178 172.10172921 12.8984375 169.109375 C11.10938716 166.84300872 11.10938716 166.84300872 8.8359375 164.671875 C3.32963445 158.74803238 -0.48128785 152.27526156 -4.1015625 145.109375 C-4.44654785 144.43277832 -4.7915332 143.75618164 -5.14697266 143.05908203 C-14.08151317 125.21042748 -20.29841519 105.73880416 -25.671875 86.54296875 C-28.74314582 76.21056713 -36.23669526 67.66092506 -43.21362305 59.6640625 C-46.40473347 55.99707978 -49.1788677 52.25467655 -51.76953125 48.1484375 C-53.14314447 46.04572166 -54.65488185 44.1296509 -56.2265625 42.171875 C-61.97268648 34.38436487 -63.47056743 27.5592415 -63.6015625 17.984375 C-63.62009277 17.13713867 -63.63862305 16.28990234 -63.65771484 15.41699219 C-63.5880064 8.41061018 -61.78961592 3.24081868 -57.20703125 -2.09765625 C-40.51253219 -16.072074 -17.40718439 -10.48313707 0 0 Z " fill="#087790" transform="translate(63.1015625,12.890625)"/>
<path d="M0 0 C4.53648512 3.95735936 7.47654147 6.52541645 8.0390625 12.734375 C8.3053548 19.27333049 7.4220511 24.10377645 3.33203125 29.38671875 C1.83203125 30.44921875 1.83203125 30.44921875 -1.16796875 30.44921875 C-1.62945312 29.36125 -2.0909375 28.27328125 -2.56640625 27.15234375 C-6.49057582 18.21282441 -10.61997135 10.95142075 -17.26171875 3.76953125 C-19.16796875 1.44921875 -19.16796875 1.44921875 -19.16796875 -1.55078125 C-17.2756493 -1.94312819 -15.37886218 -2.31396441 -13.48046875 -2.67578125 C-11.89685547 -2.98902344 -11.89685547 -2.98902344 -10.28125 -3.30859375 C-5.9146626 -3.64827809 -3.50945394 -2.51036615 0 0 Z " fill="#0E778F" transform="translate(111.16796875,84.55078125)"/>
<path d="M0 0 C5.66059228 2.51581879 9.48308047 6.3532866 13.25 11.1875 C16.26730265 14.97678812 19.36315491 18.41546305 22.875 21.75 C27.52257509 26.30024368 29.82372266 29.76824876 30.1875 36.4375 C30.0946875 37.7059375 30.0946875 37.7059375 30 39 C25.99304703 37.63350805 23.3232826 35.82896473 20.1875 33 C19.39730469 32.29875 18.60710937 31.5975 17.79296875 30.875 C16 29 16 29 16 27 C15.46890625 26.92910156 14.9378125 26.85820312 14.390625 26.78515625 C11.02399082 25.67944797 8.50760115 23.59146358 5.75 21.4375 C5.19570313 21.01275391 4.64140625 20.58800781 4.0703125 20.15039062 C2.70910589 19.10601659 1.35394167 18.05377536 0 17 C1.32 16.67 2.64 16.34 4 16 C4 15.34 4 14.68 4 14 C4.804375 13.71125 5.60875 13.4225 6.4375 13.125 C9.1326468 12.26737432 9.1326468 12.26737432 10 10 C9.34 10 8.68 10 8 10 C8 9.34 8 8.68 8 8 C7.01 8 6.02 8 5 8 C3.09122416 5.41753857 1.43622754 2.87245509 0 0 Z " fill="#1F8198" transform="translate(438,426)"/>
<path d="M0 0 C3.08432541 2.8973966 5.74274701 5.88456661 8.3125 9.25 C14.2191778 17.68136295 14.2191778 17.68136295 22 24 C22 24.66 22 25.32 22 26 C22.598125 26.268125 23.19625 26.53625 23.8125 26.8125 C26.01819033 28.00987475 27.43583187 29.04478984 29 31 C29 31.99 29 32.98 29 34 C24.43784126 33.51206858 22.34414592 31.88130196 19.0625 28.75 C18.19367188 27.9353125 17.32484375 27.120625 16.4296875 26.28125 C15.22699219 25.15203125 15.22699219 25.15203125 14 24 C12.90573648 23.07153398 11.80358355 22.15211935 10.6875 21.25 C8 19 8 19 5.7265625 16.66015625 C2.87330901 13.8763946 -0.10405482 11.54976184 -3.3125 9.1875 C-3.86228516 8.78080078 -4.41207031 8.37410156 -4.97851562 7.95507812 C-6.31625547 6.96631389 -7.65773623 5.98261415 -9 5 C-7.140625 4.37890625 -7.140625 4.37890625 -5 4 C-2.75 5.9375 -2.75 5.9375 -1 8 C-0.34 7.67 0.32 7.34 1 7 C0.67 4.69 0.34 2.38 0 0 Z " fill="#1F758B" transform="translate(182,343)"/>
<path d="M0 0 C5.39594333 5.06891647 9.89692605 10.84538907 14 17 C11.62662721 17.84763314 10.46373314 18.19520594 8.09765625 17.19921875 C5.98549294 15.99170639 4.11267343 14.67353 2.1875 13.1875 C-1.48987192 10.37945052 -5.22440007 7.67438328 -9 5 C-7.140625 4.37890625 -7.140625 4.37890625 -5 4 C-2.75 5.9375 -2.75 5.9375 -1 8 C-0.34 7.67 0.32 7.34 1 7 C0.67 4.69 0.34 2.38 0 0 Z " fill="#1C7A90" transform="translate(182,343)"/>
<path d="M0 0 C0.33 0.66 0.66 1.32 1 2 C1.66 2 2.32 2 3 2 C6.24599784 6.15487723 6.56826373 9.90551202 7 15 C7.66 15 8.32 15 9 15 C9 16.32 9 17.64 9 19 C9.66 19 10.32 19 11 19 C11 19.66 11 20.32 11 21 C11.66 21 12.32 21 13 21 C13 22.98 13 24.96 13 27 C13.66 27 14.32 27 15 27 C15.25394531 27.73605469 15.50789063 28.47210938 15.76953125 29.23046875 C16.11371094 30.20628906 16.45789063 31.18210938 16.8125 32.1875 C17.14894531 33.15042969 17.48539062 34.11335938 17.83203125 35.10546875 C18.91880607 38.05075808 18.91880607 38.05075808 20.69921875 40.67578125 C21.12847656 41.44277344 21.55773437 42.20976562 22 43 C21.67 43.99 21.34 44.98 21 46 C18.1296079 42.58656074 16.50822383 38.82633497 14.8125 34.75 C12.02582147 28.20312088 8.99907218 21.82437505 5.75317383 15.49316406 C0 4.2306323 0 4.2306323 0 0 Z " fill="#429BAB" transform="translate(278,208)"/>
<path d="M0 0 C2.4375 0.6875 2.4375 0.6875 5 2 C5.33 3.65 5.66 5.3 6 7 C-4.56 7 -15.12 7 -26 7 C-26 6.67 -26 6.34 -26 6 C-11.645 5.01 -11.645 5.01 3 4 C2.01 2.68 1.02 1.36 0 0 Z " fill="#6DB0BD" transform="translate(425,353)"/>
<path d="M0 0 C2 2 2 2 2 4 C1.071875 4.144375 0.14375 4.28875 -0.8125 4.4375 C-4.00725111 4.92100111 -4.00725111 4.92100111 -7 6 C-8.32 6 -9.64 6 -11 6 C-11.66 4.35 -12.32 2.7 -13 1 C-8.60854301 0.14313034 -4.47525292 -0.25818767 0 0 Z " fill="#05748C" transform="translate(107,83)"/>
<path d="M0 0 C9.48995225 3.05608632 18.17138525 7.43614896 27 12 C26.34 12.66 25.68 13.32 25 14 C25 13.34 25 12.68 25 12 C24.13375 11.896875 23.2675 11.79375 22.375 11.6875 C17.75069697 10.74551235 14.12152972 8.60749527 10 6.375 C6.94870161 4.97648824 4.31883419 4.39509931 1 4 C0.67 2.68 0.34 1.36 0 0 Z " fill="#4D99A4" transform="translate(353,291)"/>
<path d="M0 0 C7.56357249 2.80476941 14.02721694 7.63981007 20 13 C20 13.33 20 13.66 20 14 C17.6875 14.3125 17.6875 14.3125 15 14 C14.54625 13.21625 14.0925 12.4325 13.625 11.625 C12.14138562 8.61786687 12.14138562 8.61786687 8.3125 7.6875 C7.219375 7.460625 6.12625 7.23375 5 7 C5 6.34 5 5.68 5 5 C3.68 4.67 2.36 4.34 1 4 C0.67 2.68 0.34 1.36 0 0 Z " fill="#378799" transform="translate(410,404)"/>
<path d="M0 0 C4.54628243 3.07181245 6.11885853 5.89404458 8 11 C8.391875 11.886875 8.78375 12.77375 9.1875 13.6875 C10 16 10 16 10 20 C10.66 20 11.32 20 12 20 C11.34 21.32 10.68 22.64 10 24 C9.69707031 23.23816406 9.39414062 22.47632813 9.08203125 21.69140625 C6.70125757 15.8237148 4.19889521 10.26094378 0.91796875 4.83984375 C0 3 0 3 0 0 Z " fill="#388597" transform="translate(264,177)"/>
<path d="M0 0 C1.25492695 2.5098539 1.58045982 4.86130296 2.0625 7.625 C2.23910156 8.62789063 2.41570312 9.63078125 2.59765625 10.6640625 C2.73042969 11.43492187 2.86320312 12.20578125 3 13 C3.99 13.33 4.98 13.66 6 14 C6.33 16.31 6.66 18.62 7 21 C2.54936206 17.37355427 -0.00679143 12.30160805 -2 7 C-2.265625 4.30859375 -2.265625 4.30859375 -2 2 C-1.34 1.34 -0.68 0.68 0 0 Z " fill="#5A9DAB" transform="translate(357,371)"/>
<path d="M0 0 C6.54551919 5.34328097 11.98462374 11.20205026 17 18 C16.34 18.33 15.68 18.66 15 19 C14.59910156 18.5153125 14.19820312 18.030625 13.78515625 17.53125 C9.25157528 12.18553094 4.3300192 7.54441546 -1 3 C-0.67 2.01 -0.34 1.02 0 0 Z " fill="#30869A" transform="translate(234,104)"/>
<path d="M0 0 C0.66 0 1.32 0 2 0 C6.57142857 7.28571429 6.57142857 7.28571429 6 12 C6.99 12.33 7.98 12.66 9 13 C9.33 14.98 9.66 16.96 10 19 C6.64638052 15.97445199 4.73466438 12.98200544 2.75 8.9375 C1.96882813 7.37322266 1.96882813 7.37322266 1.171875 5.77734375 C0 3 0 3 0 0 Z " fill="#24788A" transform="translate(74,303)"/>
<path d="M0 0 C1.875 0.625 1.875 0.625 4 2 C5.25 5.125 5.25 5.125 6 8 C6.66 8 7.32 8 8 8 C8 9.65 8 11.3 8 13 C8.66 13.33 9.32 13.66 10 14 C10.8515625 16.06640625 10.8515625 16.06640625 11.625 18.5625 C12.01558594 19.80193359 12.01558594 19.80193359 12.4140625 21.06640625 C12.60742188 21.70449219 12.80078125 22.34257812 13 23 C10.72753662 20.9086545 9.30897727 18.97741243 7.95703125 16.20703125 C7.60576172 15.49482422 7.25449219 14.78261719 6.89257812 14.04882812 C6.53615234 13.31083984 6.17972656 12.57285156 5.8125 11.8125 C5.44447266 11.06291016 5.07644531 10.31332031 4.69726562 9.54101562 C3.79271782 7.69667788 2.89562424 5.84868755 2 4 C1.01 4.495 1.01 4.495 0 5 C0 3.35 0 1.7 0 0 Z " fill="#5EABB8" transform="translate(131,289)"/>
<path d="M0 0 C1.28132813 0.00902344 2.56265625 0.01804687 3.8828125 0.02734375 C4.87023437 0.03894531 5.85765625 0.05054688 6.875 0.0625 C7.205 0.7225 7.535 1.3825 7.875 2.0625 C-1.035 3.0525 -1.035 3.0525 -10.125 4.0625 C-9.795 3.0725 -9.465 2.0825 -9.125 1.0625 C-6.12186252 -0.43906874 -3.33432478 -0.03031204 0 0 Z " fill="#3C91A2" transform="translate(418.125,373.9375)"/>
<path d="M0 0 C2.93200474 2.85276137 5.64315404 5.65079784 8 9 C5.75956356 9.80015587 4.46978636 10.1619953 2.1875 9.375 C-0.97502285 7.38712849 -3.99231138 5.21352365 -7 3 C-6.34 2.67 -5.68 2.34 -5 2 C-2.03 3.98 -2.03 3.98 1 6 C0.67 4.02 0.34 2.04 0 0 Z " fill="#378E9D" transform="translate(188,351)"/>
<path d="M0 0 C2 2 2 2 2 5 C2.66 5 3.32 5 4 5 C7.44419134 15.37357631 7.44419134 15.37357631 7 21 C4.83662639 17.75493959 3.69128328 14.73038879 2.375 11.0625 C1.92898437 9.83660156 1.48296875 8.61070313 1.0234375 7.34765625 C0 4 0 4 0 0 Z " fill="#52A2B0" transform="translate(44,117)"/>
<path d="M0 0 C0 0.33 0 0.66 0 1 C-1.43640171 1.19573608 -2.87419504 1.38127816 -4.3125 1.5625 C-5.11300781 1.66691406 -5.91351563 1.77132813 -6.73828125 1.87890625 C-9 2 -9 2 -12 1 C-17.08813236 0.67048286 -22.00001322 0.97436169 -27 2 C-20.31192069 -4.68807931 -8.25747692 -1.431296 0 0 Z " fill="#5C9CAC" transform="translate(41,4)"/>
<path d="M0 0 C3.84411747 1.56612193 6.15950209 4.02094121 9 7 C9.86625 7.845625 10.7325 8.69125 11.625 9.5625 C13.63083473 11.62111985 15.34964689 13.65476137 17 16 C12.85270149 14.62977947 10.41767931 12.79814293 7.375 9.6875 C6.61960937 8.92824219 5.86421875 8.16898437 5.0859375 7.38671875 C3.04064176 5.04650208 1.50675678 2.71120248 0 0 Z " fill="#3E8E9D" transform="translate(364,393)"/>
<path d="M0 0 C0.99 0.495 0.99 0.495 2 1 C2 1.66 2 2.32 2 3 C2.99 3.33 3.98 3.66 5 4 C5.78844909 5.67545431 6.56632039 7.35894528 7.234375 9.0859375 C8.07139774 11.27593813 8.07139774 11.27593813 9.75 14.3125 C10.1625 15.199375 10.575 16.08625 11 17 C10.67 17.66 10.34 18.32 10 19 C0 4.3 0 4.3 0 0 Z " fill="#3D91A4" transform="translate(59,155)"/>
<path d="M0 0 C-3.3171411 1.4216319 -6.44219804 2.39009109 -10 3 C-10.33 3.99 -10.66 4.98 -11 6 C-13.64 5.67 -16.28 5.34 -19 5 C-16.4156782 2.4156782 -14.10624423 1.89598837 -10.625 0.8125 C-9.48289062 0.44769531 -8.34078125 0.08289063 -7.1640625 -0.29296875 C-4.18525347 -0.95860385 -2.79128097 -1.07938697 0 0 Z " fill="#388A9E" transform="translate(378,366)"/>
<path d="M0 0 C2.86207152 1.28299758 5.0245088 2.530636 7 5 C7 5.99 7 6.98 7 8 C2.68607774 7.5206753 0.83430453 6.2542015 -2 3 C-1.34 2.01 -0.68 1.02 0 0 Z " fill="#3B8395" transform="translate(204,369)"/>
<path d="M0 0 C-2.94369145 1.47184573 -5.73383414 1 -9 1 C-10.67557379 1.28520405 -12.34817245 1.59955696 -14 2 C-13.65213292 3.97536745 -13.65213292 3.97536745 -13 6 C-12.34 6.33 -11.68 6.66 -11 7 C-11.99 7 -12.98 7 -14 7 C-16.35723489 4.46815512 -17 3.52809907 -17 0 C-15.10768055 -0.39234694 -13.21089343 -0.76318316 -11.3125 -1.125 C-9.72888672 -1.43824219 -9.72888672 -1.43824219 -8.11328125 -1.7578125 C-4.75602341 -2.01897936 -2.9770956 -1.49130948 0 0 Z " fill="#64A3B1" transform="translate(109,83)"/>
<path d="M0 0 C4.27186525 1.52853935 7.99326863 3.71509481 11.8125 6.125 C12.40998047 6.49753906 13.00746094 6.87007812 13.62304688 7.25390625 C15.08426251 8.1657048 16.54244585 9.08235976 18 10 C17.01 10.33 16.02 10.66 15 11 C13.24583035 10.02546131 11.4939281 9.04429756 9.78515625 7.9921875 C7.57788889 6.7653912 5.49583139 6.30252502 3 6 C3.33 5.01 3.66 4.02 4 3 C2.68 3 1.36 3 0 3 C0 2.01 0 1.02 0 0 Z " fill="#4B9DAA" transform="translate(167,53)"/>
<path d="M0 0 C3.19249477 2.96647745 5.4592987 6.04963636 7.75 9.75 C8.36359375 10.73484375 8.9771875 11.7196875 9.609375 12.734375 C10.29773438 13.85585937 10.29773438 13.85585937 11 15 C10.34 15.66 9.68 16.32 9 17 C8.731875 16.38125 8.46375 15.7625 8.1875 15.125 C7.04443152 12.7004767 7.04443152 12.7004767 4 11 C3.3125 7.875 3.3125 7.875 3 5 C2.01 5.33 1.02 5.66 0 6 C0 4.02 0 2.04 0 0 Z " fill="#338192" transform="translate(267,143)"/>
<path d="M0 0 C2.68125418 2.38246339 4.11423459 4.8545504 5.6875 8.0625 C6.12449219 8.94035156 6.56148438 9.81820312 7.01171875 10.72265625 C8 13 8 13 8 15 C7.34 15 6.68 15 6 15 C2.08872729 10.74861662 0 5.73305042 0 0 Z " fill="#2C7C8D" transform="translate(313,235)"/>
<path d="M0 0 C2.81631641 2.49493496 4.40955981 5.26562818 6.1875 8.5625 C6.71730469 9.53316406 7.24710937 10.50382813 7.79296875 11.50390625 C9 14 9 14 9 16 C8.34 16 7.68 16 7 16 C6.67 14.35 6.34 12.7 6 11 C5.38125 10.95875 4.7625 10.9175 4.125 10.875 C2 10 2 10 0.75 7.1875 C0 4 0 4 0 0 Z " fill="#3E8B98" transform="translate(282,166)"/>
<path d="M0 0 C1.91385532 2.87078299 2.96432952 5.33411656 4.125 8.5625 C4.47820312 9.53316406 4.83140625 10.50382813 5.1953125 11.50390625 C6 14 6 14 6 16 C5.01 16 4.02 16 3 16 C-0.44419134 5.62642369 -0.44419134 5.62642369 0 0 Z " fill="#5DA0AF" transform="translate(64,124)"/>
<path d="M0 0 C1.76171875 0.12890625 1.76171875 0.12890625 4 1 C5.95703125 3.65234375 5.95703125 3.65234375 7.8125 6.9375 C8.43769531 8.01902344 9.06289062 9.10054687 9.70703125 10.21484375 C10.13371094 11.13394531 10.56039062 12.05304688 11 13 C10.67 13.66 10.34 14.32 10 15 C8.5125035 13.25707481 7.03527508 11.50538246 5.5625 9.75 C4.73878906 8.77546875 3.91507813 7.8009375 3.06640625 6.796875 C1.25150943 4.3404173 0.38842559 2.96615903 0 0 Z " fill="#428BA4" transform="translate(233,132)"/>
<path d="M0 0 C1.916588 -0.02712153 3.8332873 -0.04645097 5.75 -0.0625 C7.35101563 -0.07990234 7.35101563 -0.07990234 8.984375 -0.09765625 C11.53368501 -0.01510087 13.57933591 0.25382442 16 1 C16 1.66 16 2.32 16 3 C10.39 2.67 4.78 2.34 -1 2 C-0.67 1.34 -0.34 0.68 0 0 Z " fill="#3D939F" transform="translate(86,51)"/>
<path d="M0 0 C2.06363112 0.45321328 4.12586507 0.91279106 6.1875 1.375 C7.33605469 1.63023438 8.48460937 1.88546875 9.66796875 2.1484375 C12.58807348 2.89472452 15.23953389 3.80431788 18 5 C18 5.33 18 5.66 18 6 C16.00045254 6.04254356 13.99958364 6.04080783 12 6 C11.67 5.67 11.34 5.34 11 5 C9.906875 4.855625 8.81375 4.71125 7.6875 4.5625 C4.55898801 4.08526936 2.65898859 3.59539315 0 2 C0 1.34 0 0.68 0 0 Z " fill="#6CA5B3" transform="translate(131,38)"/>
<path d="M0 0 C5.20955943 0.54837468 10.06836739 1.18837986 15 3 C15.33 3.99 15.66 4.98 16 6 C10.72 4.68 5.44 3.36 0 2 C0 1.34 0 0.68 0 0 Z " fill="#5E9DA8" transform="translate(336,305)"/>
<path d="M0 0 C1.32 0 2.64 0 4 0 C4.33 2.31 4.66 4.62 5 7 C5.99 7.33 6.98 7.66 8 8 C8.6875 10.0625 8.6875 10.0625 9 12 C8.01 12.495 8.01 12.495 7 13 C5.83072457 11.02237345 4.66464427 9.04285742 3.5 7.0625 C2.8503125 5.96035156 2.200625 4.85820312 1.53125 3.72265625 C0 1 0 1 0 0 Z " fill="#428F9F" transform="translate(310,279)"/>
<path d="M0 0 C1.32 0.33 2.64 0.66 4 1 C4 1.99 4 2.98 4 4 C4.639375 4.185625 5.27875 4.37125 5.9375 4.5625 C8 6 8 6 8.75 9.625 C8.87375 11.295625 8.87375 11.295625 9 13 C8.01 12.67 7.02 12.34 6 12 C5.9071875 10.948125 5.9071875 10.948125 5.8125 9.875 C4.7107938 5.97665497 2.67765377 4.02094272 0 1 C0 0.67 0 0.34 0 0 Z " fill="#268090" transform="translate(71,175)"/>
<path d="M0 0 C3.21043882 1.38188453 5.04936365 2.92421903 7.25 5.625 C8.03117187 6.57246094 8.03117187 6.57246094 8.828125 7.5390625 C9.40820312 8.26222656 9.40820312 8.26222656 10 9 C9.67 9.66 9.34 10.32 9 11 C8.34 11 7.68 11 7 11 C3 6.52941176 3 6.52941176 3 4 C2.01 3.67 1.02 3.34 0 3 C0 2.01 0 1.02 0 0 Z " fill="#4FA5AF" transform="translate(82,164)"/>
<path d="M0 0 C1.65312636 2.47968954 2.89803633 4.74272424 4.125 7.4375 C4.47820312 8.19933594 4.83140625 8.96117187 5.1953125 9.74609375 C6 12 6 12 6 16 C5.01 15.67 4.02 15.34 3 15 C2.05078125 12.63671875 2.05078125 12.63671875 1.3125 9.6875 C1.06113281 8.72199219 0.80976562 7.75648438 0.55078125 6.76171875 C0 4 0 4 0 0 Z " fill="#5197A5" transform="translate(70,140)"/>
<path d="M0 0 C1.890625 0.31640625 1.890625 0.31640625 4 1 C7 6.03571429 7 6.03571429 7 9 C8.32 9.33 9.64 9.66 11 10 C10.67 10.66 10.34 11.32 10 12 C8.203125 11.84765625 8.203125 11.84765625 6 11 C4.296875 8.49609375 4.296875 8.49609375 2.75 5.4375 C1.96882813 3.91962891 1.96882813 3.91962891 1.171875 2.37109375 C0.59179688 1.19740234 0.59179688 1.19740234 0 0 Z " fill="#267C93" transform="translate(31,86)"/>
<path d="M0 0 C0.90105469 0.00902344 1.80210937 0.01804687 2.73046875 0.02734375 C3.41753906 0.03894531 4.10460937 0.05054688 4.8125 0.0625 C0.33531208 3.04729194 -3.82574093 4.0625 -9.1875 4.0625 C-8.8575 3.0725 -8.5275 2.0825 -8.1875 1.0625 C-5.17259443 0.05753148 -3.14568308 -0.04085303 0 0 Z " fill="#3D97A9" transform="translate(438.1875,370.9375)"/>
<path d="M0 0 C0.58007812 0.34933594 1.16015625 0.69867187 1.7578125 1.05859375 C6.17269444 3.63029891 9.79941563 5.59995505 15 6 C15 6.66 15 7.32 15 8 C8.18461113 8.71740936 8.18461113 8.71740936 4.91015625 6.734375 C3.12678067 5.23181725 1.48880229 3.79586776 0 2 C0 1.34 0 0.68 0 0 Z " fill="#2D879A" transform="translate(86,28)"/>
<path d="M0 0 C4.88812032 0.41898174 6.70407414 2.5350523 10 6 C12.16620544 7.29519995 12.16620544 7.29519995 14 8 C13.67 8.99 13.34 9.98 13 11 C11.01712504 9.54648985 9.03870613 8.08752713 7.0625 6.625 C6.49853516 6.2125 5.93457031 5.8 5.35351562 5.375 C1.11328125 2.2265625 1.11328125 2.2265625 0 0 Z " fill="#4093A2" transform="translate(381,409)"/>
<path d="M0 0 C2.32240046 2.85021875 3.93906527 5.46355091 5 9 C4.625 11.3125 4.625 11.3125 4 13 C3.34 13 2.68 13 2 13 C1.66127487 11.58461283 1.32925376 10.16762037 1 8.75 C0.814375 7.96109375 0.62875 7.1721875 0.4375 6.359375 C0 4 0 4 0 0 Z " fill="#428C9A" transform="translate(302,209)"/>
<path d="M0 0 C2.26171875 0.15234375 2.26171875 0.15234375 5 1 C7.01953125 3.50390625 7.01953125 3.50390625 8.8125 6.5625 C9.41707031 7.57441406 10.02164063 8.58632812 10.64453125 9.62890625 C11.09183594 10.41136719 11.53914062 11.19382813 12 12 C8.61181498 10.56394807 6.6813402 8.79533421 4.3125 6 C3.71050781 5.29875 3.10851562 4.5975 2.48828125 3.875 C1 2 1 2 0 0 Z " fill="#3D879F" transform="translate(220,119)"/>
<path d="M0 0 C2.32510245 2.84179188 4.57700599 5.72826599 6.75 8.6875 C7.17796875 9.26886719 7.6059375 9.85023437 8.046875 10.44921875 C9 12 9 12 9 14 C8.34 14 7.68 14 7 14 C3.10377105 9.60103183 0 5.98498887 0 0 Z " fill="#22788C" transform="translate(35,63)"/>
<path d="M0 0 C2.29013653 3.4352048 2.17842973 4.985331 2 9 C-1.91402949 7.73058503 -3.79072873 6.48832306 -6 3 C-3.525 3.495 -3.525 3.495 -1 4 C-0.67 2.68 -0.34 1.36 0 0 Z " fill="#4B9AA5" transform="translate(466,456)"/>
<path d="M0 0 C0.66 0 1.32 0 2 0 C1.34 5.61 0.68 11.22 0 17 C-0.33 17 -0.66 17 -1 17 C-1.02684679 14.35409986 -1.04676357 11.70846904 -1.0625 9.0625 C-1.07087891 8.30775391 -1.07925781 7.55300781 -1.08789062 6.77539062 C-1.09652441 4.85005687 -1.05224333 2.92464419 -1 1 C-0.67 0.67 -0.34 0.34 0 0 Z " fill="#3E8EA0" transform="translate(129,299)"/>
<path d="M0 0 C0.33 0.66 0.66 1.32 1 2 C1.66 2 2.32 2 3 2 C5.5393228 5.41831915 6.3636198 7.75776898 6 12 C2.92307943 9.23077149 1.22199993 6.97149976 0 3 C0 2.01 0 1.02 0 0 Z " fill="#4295A4" transform="translate(278,208)"/>
<path d="M0 0 C3 1 3 1 4.421875 3.1796875 C4.86015625 4.06914063 5.2984375 4.95859375 5.75 5.875 C6.19859375 6.75929688 6.6471875 7.64359375 7.109375 8.5546875 C8 11 8 11 7 14 C4.60926851 11.06810006 3.15892693 8.27856712 1.8125 4.75 C1.46832031 3.85796875 1.12414062 2.9659375 0.76953125 2.046875 C0.51558594 1.37140625 0.26164062 0.6959375 0 0 Z " fill="#4293A6" transform="translate(102,97)"/>
<path d="M0 0 C4.89672424 2.17632189 8.98947371 4.88229672 11 10 C10.01 10 9.02 10 8 10 C8 9.34 8 8.68 8 8 C7.01 8 6.02 8 5 8 C3.09122416 5.41753857 1.43622754 2.87245509 0 0 Z " fill="#428E9D" transform="translate(438,426)"/>
<path d="M0 0 C1.60781893 0.7631861 3.21113138 1.53587058 4.8125 2.3125 C5.70582031 2.74175781 6.59914063 3.17101562 7.51953125 3.61328125 C9.78931933 4.88221789 11.29248171 6.06556898 13 8 C10.23723823 7.47731534 7.6739124 6.89130413 5 6 C5 5.34 5 4.68 5 4 C3.35 3.67 1.7 3.34 0 3 C0 2.01 0 1.02 0 0 Z " fill="#56A4B1" transform="translate(396,395)"/>
<path d="M0 0 C0.66 0 1.32 0 2 0 C3.65 2.97 5.3 5.94 7 9 C5.68 9.33 4.36 9.66 3 10 C1.5783681 6.6828589 0.60990891 3.55780196 0 0 Z " fill="#358195" transform="translate(260,134)"/>
<path d="M0 0 C5.34844008 0.53484401 9.35796103 2.46690767 14 5 C13.67 5.66 13.34 6.32 13 7 C3.40546697 2.96127563 3.40546697 2.96127563 0 0 Z " fill="#2E8292" transform="translate(421,433)"/>
<path d="M0 0 C0.99 0.495 0.99 0.495 2 1 C2 2.32 2 3.64 2 5 C2.66 5 3.32 5 4 5 C4.33 8.3 4.66 11.6 5 15 C3.25050228 12.37575342 2.34610019 10.44272784 1.375 7.5 C0.98441406 6.33984375 0.98441406 6.33984375 0.5859375 5.15625 C0 3 0 3 0 0 Z " fill="#78B3BE" transform="translate(39,102)"/>
<path d="M0 0 C2.375 0.625 2.375 0.625 5 2 C6.1875 5.0625 6.1875 5.0625 7 8 C7.66 8.33 8.32 8.66 9 9 C8.67 9.99 8.34 10.98 8 12 C4.78119883 8.2064129 2.3836813 4.34170523 0 0 Z " fill="#3E98A6" transform="translate(11,59)"/>
<path d="M0 0 C0 2.64 0 5.28 0 8 C-0.33 7.34 -0.66 6.68 -1 6 C-3.52733235 5.34444881 -3.52733235 5.34444881 -6 5 C-6 4.01 -6 3.02 -6 2 C-1.125 0 -1.125 0 0 0 Z " fill="#14758A" transform="translate(466,454)"/>
<path d="M0 0 C3.94627764 0.56375395 6.79480075 1.59610056 10 4 C10.640625 6.10546875 10.640625 6.10546875 11 8 C9.16399255 6.85845641 7.33125195 5.71165684 5.5 4.5625 C4.4790625 3.92441406 3.458125 3.28632813 2.40625 2.62890625 C1.6121875 2.09136719 0.818125 1.55382812 0 1 C0 0.67 0 0.34 0 0 Z " fill="#3D8B9F" transform="translate(384,325)"/>
<path d="M0 0 C5.86448454 0.2555331 9.65757571 0.65757571 14 5 C8.94744036 4.36843005 4.70406799 2.86540627 0 1 C0 0.67 0 0.34 0 0 Z " fill="#62A3B2" transform="translate(34,24)"/>
<path d="M0 0 C0.66 0 1.32 0 2 0 C2 1.32 2 2.64 2 4 C2.66 4 3.32 4 4 4 C5.85776765 7.13498292 6.20140476 9.37471432 6 13 C2.57068046 9.2440786 1.43570917 4.76533255 0 0 Z " fill="#60A1B6" transform="translate(51,138)"/>
<path d="M0 0 C7.57142857 4 7.57142857 4 10 8 C8.35 7.67 6.7 7.34 5 7 C5 6.34 5 5.68 5 5 C4.01 5.33 3.02 5.66 2 6 C2 4.68 2 3.36 2 2 C1.34 2 0.68 2 0 2 C0 1.34 0 0.68 0 0 Z " fill="#4E95A0" transform="translate(204,78)"/>
<path d="M0 0 C2.56144795 2.56144795 4.77094624 5.15603485 7 8 C6.67 8.66 6.34 9.32 6 10 C4.68 9.67 3.36 9.34 2 9 C1.34 6.03 0.68 3.06 0 0 Z " fill="#51A1B1" transform="translate(18,40)"/>
<path d="M0 0 C1.32 0.33 2.64 0.66 4 1 C2.71700242 3.86207152 1.469364 6.0245088 -1 8 C-1.99 8 -2.98 8 -4 8 C-3.67 7.01 -3.34 6.02 -3 5 C-2.01 5 -1.02 5 0 5 C0 3.35 0 1.7 0 0 Z " fill="#378A9C" transform="translate(120,328)"/>
<path d="M0 0 C0.99 0.33 1.98 0.66 3 1 C3 1.99 3 2.98 3 4 C3.66 4 4.32 4 5 4 C5 5.32 5 6.64 5 8 C5.66 8.33 6.32 8.66 7 9 C6.34 9.66 5.68 10.32 5 11 C4.16151196 9.54462432 3.32936066 8.08559627 2.5 6.625 C1.80390625 5.40683594 1.80390625 5.40683594 1.09375 4.1640625 C0 2 0 2 0 0 Z " fill="#74B3C3" transform="translate(282,219)"/>
<path d="M0 0 C2.3125 0.5625 2.3125 0.5625 5 2 C6.84396631 5.55622074 8.21362947 9.06814734 9 13 C5.55131413 8.91266859 2.76206846 4.56194093 0 0 Z " fill="#4A91A5" transform="translate(252,159)"/>
<path d="M0 0 C3.3 0 6.6 0 10 0 C10 0.66 10 1.32 10 2 C3.375 3.125 3.375 3.125 0 2 C0 1.34 0 0.68 0 0 Z " fill="#348FA1" transform="translate(397,377)"/>
<path d="M0 0 C4.28477792 2.30718811 7.72291137 4.32966073 11 8 C6.80639551 7.32902328 3.59665648 5.1441606 0 3 C0 2.01 0 1.02 0 0 Z " fill="#59A6B2" transform="translate(401,317)"/>
<path d="M0 0 C2.94995547 3.45856848 5.22675738 6.80021485 7 11 C6.67 11.66 6.34 12.32 6 13 C4.98868775 11.59138651 3.99133233 10.17274547 3 8.75 C2.1646875 7.56664062 2.1646875 7.56664062 1.3125 6.359375 C0 4 0 4 0 0 Z " fill="#227D8D" transform="translate(156,301)"/>
<path d="M0 0 C0.33 0 0.66 0 1 0 C1.3125 2.25 1.3125 2.25 1 5 C-1.5 7.3125 -1.5 7.3125 -4 9 C-4.66 8.67 -5.32 8.34 -6 8 C-5.02471263 6.66382648 -4.04466681 5.3311249 -3.0625 4 C-2.24458984 2.88625 -2.24458984 2.88625 -1.41015625 1.75 C-0.94480469 1.1725 -0.47945313 0.595 0 0 Z " fill="#4B98A6" transform="translate(126,253)"/>
<path d="M0 0 C2.5 1.625 2.5 1.625 5 4 C5.3125 7.25 5.3125 7.25 5 10 C2.08772731 6.71195019 0.50298788 4.40114397 0 0 Z " fill="#4396A3" transform="translate(264,177)"/>
<path d="M0 0 C0 0.66 0 1.32 0 2 C-4.40914783 3.10228696 -8.48382401 3.07654536 -13 3 C-8.65118303 0.58399057 -4.96195443 0 0 0 Z " fill="#6DAEC0" transform="translate(397,360)"/>
<path d="M0 0 C2.96 4.44 2.96 4.44 4 7 C3.67 7.99 3.34 8.98 3 10 C0.52098038 8.05989769 0.00329768 7.01374033 -0.75 3.875 C-0.8325 2.92625 -0.915 1.9775 -1 1 C-0.67 0.67 -0.34 0.34 0 0 Z " fill="#509CAE" transform="translate(142,271)"/>
<path d="M0 0 C5.4611399 0.35233161 5.4611399 0.35233161 8 1 C9.5 3.0625 9.5 3.0625 10 5 C5.59885603 4.49701212 3.28804981 2.91227269 0 0 Z " fill="#4C9EA8" transform="translate(152,68)"/>
<path d="M0 0 C1.65 0 3.3 0 5 0 C4.67 0.99 4.34 1.98 4 3 C2.02 3.33 0.04 3.66 -2 4 C-1.34 2.68 -0.68 1.36 0 0 Z " fill="#027587" transform="translate(443,436)"/>
<path d="M0 0 C0.33 0.66 0.66 1.32 1 2 C1.99 2.33 2.98 2.66 4 3 C4.33 5.31 4.66 7.62 5 10 C1.32769295 6.92000054 0.43197635 4.7517398 0 0 Z " fill="#4793A3" transform="translate(359,382)"/>
<path d="M0 0 C0.66 0.99 1.32 1.98 2 3 C-1.3 3.33 -4.6 3.66 -8 4 C-7.67 3.01 -7.34 2.02 -7 1 C-4.46578263 -0.26710868 -2.80561762 -0.28056176 0 0 Z " fill="#52A2AE" transform="translate(416,374)"/>
<path d="M0 0 C4.42857143 5.14285714 4.42857143 5.14285714 5 9 C4.01 9 3.02 9 2 9 C0.50178941 5.62902617 0 3.79557881 0 0 Z " fill="#3A92A2" transform="translate(325,259)"/>
<path d="M0 0 C1.48280196 0.78483659 2.9611498 1.57809334 4.4375 2.375 C5.67306641 3.03628906 5.67306641 3.03628906 6.93359375 3.7109375 C9 5 9 5 10 7 C6.4257023 6.67506385 4.44287547 6.36129314 1.625 4.0625 C0 2 0 2 0 0 Z " fill="#4490A8" transform="translate(74,19)"/>
<path d="M0 0 C3 1 3 1 4.3125 3.375 C4.6528125 4.674375 4.6528125 4.674375 5 6 C4.01 7.485 4.01 7.485 3 9 C2.01 6.03 1.02 3.06 0 0 Z " fill="#438C9B" transform="translate(299,254)"/>
<path d="M0 0 C1.60080151 4.00200378 0.29279692 7.04556236 -1 11 C-1.66 11 -2.32 11 -3 11 C-2.44894091 7.0507432 -1.61064629 3.65079826 0 0 Z " fill="#278A98" transform="translate(86,210)"/>
<path d="M0 0 C2.50298434 2.93828597 3.46930939 5.17902761 4 9 C2.68 8.34 1.36 7.68 0 7 C0 4.69 0 2.38 0 0 Z " fill="#40949F" transform="translate(51,88)"/>
<path d="M0 0 C1.6510403 0.39553053 3.2958515 0.81713897 4.9375 1.25 C5.85402344 1.48203125 6.77054687 1.7140625 7.71484375 1.953125 C8.46894531 2.29859375 9.22304687 2.6440625 10 3 C10.33 4.32 10.66 5.64 11 7 C7.37 5.02 3.74 3.04 0 1 C0 0.67 0 0.34 0 0 Z " fill="#48939E" transform="translate(60,35)"/>
<path d="M0 0 C3.36591866 1.44253657 5.51047079 3.33264727 8 6 C7.67 6.66 7.34 7.32 7 8 C3.75700849 5.61042731 1.49097658 3.7952131 0 0 Z " fill="#157281" transform="translate(188,358)"/>
<path d="M0 0 C2.15377564 2.62198774 3.40072174 4.64404172 4 8 C2.68 7.67 1.36 7.34 0 7 C0 4.69 0 2.38 0 0 Z " fill="#5EA7B6" transform="translate(146,281)"/>
<path d="M0 0 C4.42857143 5.14285714 4.42857143 5.14285714 5 9 C4.01 9.495 4.01 9.495 3 10 C0.96564469 6.27034861 0 4.33094958 0 0 Z " fill="#448B9B" transform="translate(295,244)"/>
<path d="M0 0 C2.4375 0.6875 2.4375 0.6875 5 2 C5.8125 4.625 5.8125 4.625 6 7 C1.125 3.375 1.125 3.375 0 0 Z " fill="#5B97B2" transform="translate(204,103)"/>
<path d="M0 0 C0.33 0.66 0.66 1.32 1 2 C-1.40436026 5.60654039 -2.94679607 5.85452932 -7 7 C-2.25 1.125 -2.25 1.125 0 0 Z " fill="#5A9DAE" transform="translate(12,6)"/>
<path d="M0 0 C-1.11375 0.45375 -2.2275 0.9075 -3.375 1.375 C-6.96199008 2.72465986 -6.96199008 2.72465986 -9 5 C-9.66 4.34 -10.32 3.68 -11 3 C-10 1 -10 1 -6.625 -0.1875 C-3 -1 -3 -1 0 0 Z " fill="#147288" transform="translate(23,5)"/>
<path d="M0 0 C4.875 4.75 4.875 4.75 6 7 C4.35 6.67 2.7 6.34 1 6 C0.67 4.02 0.34 2.04 0 0 Z " fill="#469BA6" transform="translate(182,343)"/>
<path d="M0 0 C2.64 1.98 5.28 3.96 8 6 C7.67 6.66 7.34 7.32 7 8 C4.0625 6.25 4.0625 6.25 1 4 C0.67 2.68 0.34 1.36 0 0 Z " fill="#3A8899" transform="translate(430,339)"/>
<path d="M0 0 C2.8125 0.1875 2.8125 0.1875 6 1 C7.875 3.5625 7.875 3.5625 9 6 C5.06326356 4.68775452 2.77280706 3.08089673 0 0 Z " fill="#60A3AF" transform="translate(408,342)"/>
<path d="M0 0 C1.32 0.33 2.64 0.66 4 1 C4.33 2.98 4.66 4.96 5 7 C2.47411298 4.63707344 1.11179163 3.33537489 0 0 Z " fill="#49939F" transform="translate(79,315)"/>
<path d="M0 0 C1.98 0.495 1.98 0.495 4 1 C4 2.32 4 3.64 4 5 C2.35 4.67 0.7 4.34 -1 4 C-0.67 2.68 -0.34 1.36 0 0 Z " fill="#148091" transform="translate(362,311)"/>
<path d="M0 0 C6.52307692 0.61538462 6.52307692 0.61538462 8.9375 2.5625 C9.288125 3.036875 9.63875 3.51125 10 4 C9.01 4.495 9.01 4.495 8 5 C8 4.34 8 3.68 8 3 C7.05125 2.87625 6.1025 2.7525 5.125 2.625 C2 2 2 2 0 0 Z " fill="#348394" transform="translate(370,300)"/>
<path d="M0 0 C2.64 0.99 5.28 1.98 8 3 C7.67 3.66 7.34 4.32 7 5 C4.03 4.505 4.03 4.505 1 4 C0.67 2.68 0.34 1.36 0 0 Z " fill="#3C8C9C" transform="translate(353,291)"/>
<path d="M0 0 C1.98 0.66 3.96 1.32 6 2 C5.67 3.65 5.34 5.3 5 7 C2.47411298 4.63707344 1.11179163 3.33537489 0 0 Z " fill="#4E97AA" transform="translate(318,292)"/>
<path d="M0 0 C0.66 0 1.32 0 2 0 C1.67 3.3 1.34 6.6 1 10 C-1.56687367 6.1496895 -0.83288724 4.41430237 0 0 Z " fill="#33879A" transform="translate(82,222)"/>
<path d="M0 0 C3.34373475 0.55728913 6.03312999 1.35173889 9 3 C9 3.66 9 4.32 9 5 C5.22454612 3.90931332 2.52956528 3.0916909 0 0 Z " fill="#389CA6" transform="translate(178,84)"/>
<path d="M0 0 C-3.82989106 1.80230168 -6.78121808 2.19622241 -11 2 C-6.98764085 -0.6749061 -4.6342454 -1.48957888 0 0 Z " fill="#59ABB8" transform="translate(378,366)"/>
<path d="M0 0 C2.5 2.3125 2.5 2.3125 5 5 C5 5.99 5 6.98 5 8 C2.21611025 6.29374499 1.14615794 5.52373261 0.25 2.3125 C0.1675 1.549375 0.085 0.78625 0 0 Z " fill="#4890A5" transform="translate(176,335)"/>
<path d="M0 0 C0.99 0.495 0.99 0.495 2 1 C2.73075648 3.3140622 3.40138258 5.64828869 4 8 C3.34 8 2.68 8 2 8 C2 7.34 2 6.68 2 6 C1.34 6 0.68 6 0 6 C0 4.02 0 2.04 0 0 Z " fill="#418BAB" transform="translate(138,263)"/>
</svg>
