<?xml version="1.0" encoding="UTF-8"?>
<svg version="1.1" xmlns="http://www.w3.org/2000/svg" width="542" height="542">
<path d="M0 0 C19.14 0.33 38.28 0.66 58 1 C58 124.75 58 248.5 58 376 C38.53 376 19.06 376 -1 376 C-2.09916658 372.70250025 -2.11907297 370.2965841 -2.11022377 366.82398796 C-2.10934812 365.52280836 -2.10847247 364.22162876 -2.10757029 362.88101947 C-2.10147848 361.42848159 -2.09529154 359.9759441 -2.08901978 358.52340698 C-2.08604299 356.98710554 -2.08350599 355.4508032 -2.08137262 353.91450036 C-2.07419695 349.68180374 -2.06069581 345.44914696 -2.04618168 341.21647 C-2.03162719 336.65614193 -2.02285587 332.09580231 -2.01335144 327.53546143 C-1.99377536 318.59794972 -1.96872947 309.66046126 -1.9417484 300.72296916 C-1.91992964 293.46285027 -1.9000738 286.20272849 -1.88163376 278.94260025 C-1.87901163 277.91086106 -1.8763895 276.87912187 -1.87368792 275.81611786 C-1.86837052 273.7204442 -1.86305773 271.62477054 -1.85774951 269.52909686 C-1.80770219 249.86197101 -1.75147489 230.19486652 -1.69314377 210.52776374 C-1.64318092 193.63391684 -1.59847642 176.74006269 -1.55761719 159.84619141 C-1.51021522 140.2482283 -1.45959694 120.65027793 -1.40379179 101.05233681 C-1.39785632 98.96481396 -1.39192497 96.8772911 -1.38599777 94.78976822 C-1.38307939 93.76254487 -1.380161 92.73532153 -1.37715418 91.67697021 C-1.35676082 84.42028996 -1.33868579 77.16360603 -1.32149124 69.90691757 C-1.30049168 61.07119779 -1.27596581 52.23549635 -1.24684478 43.39979945 C-1.23206245 38.88736278 -1.2189102 34.37493648 -1.21003914 29.86248398 C-1.20188655 25.73855363 -1.18919636 21.61466408 -1.17275397 17.49075867 C-1.1675962 15.99219134 -1.16415202 14.49361703 -1.16251679 12.99504171 C-1.16006205 10.97146038 -1.15096942 8.94789023 -1.14145851 6.92432976 C-1.1382584 5.79628799 -1.13505828 4.66824623 -1.13176119 3.50602138 C-1 1 -1 1 0 0 Z " fill="#1E2780" transform="translate(113,145)"/>
<path d="M0 0 C19.47 0 38.94 0 59 0 C59 124.08 59 248.16 59 376 C39.86 376 20.72 376 1 376 C-0.09963966 372.70108102 -0.12421337 370.28005701 -0.12304783 366.80557728 C-0.12503888 365.50029758 -0.12702993 364.19501789 -0.12908131 362.85018426 C-0.12622806 361.39302733 -0.12328245 359.93587057 -0.12025452 358.47871399 C-0.12069033 356.93757411 -0.12156541 355.3964343 -0.12284368 353.85529488 C-0.12508674 349.60927649 -0.12106991 345.36328317 -0.11606562 341.11726797 C-0.11175862 336.54263583 -0.11320772 331.96800518 -0.1139679 327.39337158 C-0.11449297 319.46382116 -0.11134787 311.53427896 -0.10573006 303.60473061 C-0.09761285 292.13984761 -0.09499961 280.67496859 -0.09374207 269.21008303 C-0.09155189 250.61034933 -0.08489275 232.01062 -0.07543945 213.41088867 C-0.06626444 195.33992535 -0.05918404 177.26896322 -0.05493164 159.19799805 C-0.05466892 158.08463687 -0.05440619 156.97127569 -0.05413551 155.82417629 C-0.0528305 150.23892962 -0.05156678 144.65368295 -0.05032361 139.06843626 C-0.03995208 92.71228766 -0.02206004 46.3561444 0 0 Z " fill="#1A237D" transform="translate(383,21)"/>
<path d="M0 0 C1.7115477 0.0001133 1.7115477 0.0001133 3.45767212 0.00022888 C4.69415497 0.00539017 5.93063782 0.01055145 7.20458984 0.01586914 C8.46693451 0.01728409 9.72927917 0.01869904 11.02987671 0.02015686 C14.38691033 0.02481461 17.74387635 0.03380131 21.10089111 0.04486084 C24.52607641 0.05508769 27.95126868 0.05965721 31.37646484 0.06469727 C38.09783777 0.07574301 44.81917865 0.09249346 51.54052734 0.11352539 C52.47467677 2.91597367 52.66610848 4.60009756 52.66751099 7.49604797 C52.67033081 8.39181549 52.67315063 9.28758301 52.67605591 10.210495 C52.67403168 11.19081192 52.67200745 12.17112885 52.66992188 13.18115234 C52.67167419 14.21558472 52.67342651 15.25001709 52.67523193 16.3157959 C52.67964256 19.74448308 52.67671456 23.1731189 52.67333984 26.60180664 C52.67401326 28.98211171 52.67498361 31.36241672 52.67623901 33.74272156 C52.67771504 38.73701633 52.67556502 43.73129324 52.67089844 48.72558594 C52.66521049 55.12472874 52.66847484 61.52382952 52.6744709 67.92297077 C52.67808697 72.84118465 52.67693294 77.75938859 52.67434311 82.67760277 C52.67367626 85.03669426 52.67449383 87.39578665 52.67682266 89.75487709 C52.67936527 93.05584724 52.67548541 96.35674972 52.66992188 99.65771484 C52.67194611 100.63195908 52.67397034 101.60620331 52.67605591 102.60997009 C52.66165954 107.22642135 52.492571 111.57210764 51.54052734 116.11352539 C43.99554501 116.1366539 36.45056634 116.15444308 28.90555668 116.16533756 C25.4024385 116.17056528 21.8993445 116.17766089 18.39624023 116.18896484 C14.37271894 116.20186745 10.3492232 116.20675451 6.32568359 116.21118164 C5.06216568 116.21634293 3.79864777 116.22150421 2.49684143 116.2268219 C1.33571335 116.22689743 0.17458527 116.22697296 -1.02172852 116.22705078 C-2.56394325 116.2303817 -2.56394325 116.2303817 -4.13731384 116.23377991 C-6.45947266 116.11352539 -6.45947266 116.11352539 -7.45947266 115.11352539 C-7.55515841 113.63336145 -7.58135533 112.14864266 -7.57972717 110.66539001 C-7.58110184 109.70480179 -7.5824765 108.74421356 -7.58389282 107.7545166 C-7.58029755 106.69212769 -7.57670227 105.62973877 -7.57299805 104.53515625 C-7.57314407 103.42310318 -7.5732901 102.31105011 -7.57344055 101.16529846 C-7.57274086 97.46963588 -7.56494585 93.77402298 -7.55712891 90.07836914 C-7.55526493 87.52389046 -7.55384093 84.96941142 -7.55284119 82.41493225 C-7.5494061 76.36590829 -7.5415153 70.31690584 -7.5314917 64.26789051 C-7.52032949 57.38287385 -7.51481984 50.49785635 -7.50979626 43.6128329 C-7.49933266 29.44638709 -7.48173388 15.27995722 -7.45947266 1.11352539 C-4.84425481 -0.19408353 -2.92833865 -0.00645009 0 0 Z " fill="#1A237C" transform="translate(299.45947265625,133.886474609375)"/>
<path d="M0 0 C19.47 0 38.94 0 59 0 C59.63649228 3.8189537 60.12507282 6.80867479 60.12698364 10.54673767 C60.12980347 11.40311325 60.13262329 12.25948883 60.13552856 13.14181519 C60.13350433 14.06302155 60.1314801 14.98422791 60.12939453 15.93334961 C60.13114685 16.91784592 60.13289917 17.90234222 60.13470459 18.91667175 C60.1390956 22.16191383 60.13619455 25.40710114 60.1328125 28.65234375 C60.13348638 30.91386424 60.13445711 33.17538466 60.13571167 35.43690491 C60.13718496 40.17368256 60.1350461 44.91044134 60.13037109 49.6472168 C60.12467731 55.71099572 60.12795295 61.77473035 60.13394356 67.83850765 C60.13756188 72.50798372 60.13640467 77.17744934 60.13381577 81.84692574 C60.13314985 84.08238289 60.13396319 86.317841 60.13629532 88.55329704 C60.13884231 91.68130878 60.13495222 94.8092494 60.12939453 97.93725586 C60.13141876 98.85643799 60.13344299 99.77562012 60.13552856 100.72265625 C60.11955673 105.58924562 59.82216015 110.20141351 59 115 C55.9665602 116.0111466 53.90774148 116.13248421 50.73413086 116.14526367 C49.12247292 116.15483345 49.12247292 116.15483345 47.47825623 116.16459656 C46.31883011 116.16570938 45.15940399 116.1668222 43.96484375 116.16796875 C42.77524551 116.17129715 41.58564728 116.17462555 40.36000061 116.17805481 C37.84408963 116.18312004 35.32817193 116.18546326 32.81225586 116.18530273 C28.94959565 116.18749314 25.08721917 116.20566416 21.22460938 116.22460938 C18.78385515 116.2275425 16.34309956 116.22952784 13.90234375 116.23046875 C12.7408934 116.23765427 11.57944305 116.24483978 10.38279724 116.25224304 C9.31151077 116.24916641 8.2402243 116.24608978 7.13647461 116.24291992 C6.19066025 116.24434494 5.24484589 116.24576996 4.27037048 116.24723816 C2 116 2 116 0 114 C-0.24609566 111.97352409 -0.24609566 111.97352409 -0.24050903 109.43161011 C-0.24325836 108.46964722 -0.24600769 107.50768433 -0.24884033 106.51657104 C-0.24164978 105.4577774 -0.23445923 104.39898376 -0.22705078 103.30810547 C-0.22748886 101.63980682 -0.22748886 101.63980682 -0.22793579 99.93780518 C-0.22653818 96.24752096 -0.21095662 92.55743661 -0.1953125 88.8671875 C-0.1915839 86.3141389 -0.18873621 83.76108887 -0.18673706 81.20803833 C-0.17987103 75.16610061 -0.16409495 69.12424918 -0.14403808 63.08234608 C-0.11951066 55.53017165 -0.10854707 47.97798555 -0.09765625 40.42578125 C-0.07816379 26.95046457 -0.03810171 13.47530545 0 0 Z " fill="#1A237C" transform="translate(292,372)"/>
<path d="M0 0 C0 37.95 0 75.9 0 115 C-19.47 115 -38.94 115 -59 115 C-59 77.05 -59 39.1 -59 0 C-5 -1 -5 -1 0 0 Z " fill="#1B247D" transform="translate(261,282)"/>
<path d="M0 0 C19.47 0 38.94 0 59 0 C59 37.95 59 75.9 59 115 C39.53 115 20.06 115 0 115 C0 77.05 0 39.1 0 0 Z " fill="#1A237D" transform="translate(202,44)"/>
<path d="M0 0 C2.39099121 -0.3742218 2.39099121 -0.3742218 5.42773438 -0.37231445 C6.56231079 -0.37854324 7.69688721 -0.38477203 8.86584473 -0.39118958 C10.09605347 -0.38197983 11.32626221 -0.37277008 12.59375 -0.36328125 C13.85135132 -0.36377975 15.10895264 -0.36427826 16.40466309 -0.36479187 C19.0680986 -0.36244751 21.73074446 -0.35426594 24.39404297 -0.33618164 C27.81073454 -0.31349391 31.226984 -0.31294978 34.64373016 -0.31969929 C37.89793687 -0.32384097 41.15206479 -0.3118695 44.40625 -0.30078125 C46.25156311 -0.30214836 46.25156311 -0.30214836 48.13415527 -0.30354309 C49.26873169 -0.29401108 50.40330811 -0.28447906 51.57226562 -0.2746582 C52.57439087 -0.27005081 53.57651611 -0.26544342 54.60900879 -0.26069641 C57 0 57 0 59 2 C59.24050903 4.44241333 59.24050903 4.44241333 59.22705078 7.55126953 C59.22689972 8.71232208 59.22674866 9.87337463 59.22659302 11.0696106 C59.21627045 12.32796722 59.20594788 13.58632385 59.1953125 14.8828125 C59.1924826 16.16735321 59.18965271 17.45189392 59.18673706 18.77536011 C59.17909809 22.19162767 59.15944752 25.60772537 59.1373291 29.02392578 C59.11687624 32.50941673 59.10773655 35.9949351 59.09765625 39.48046875 C59.07620175 46.32038231 59.04206271 53.160183 59 60 C55.11690529 60.71791062 51.43255971 61.12894809 47.48535156 61.14526367 C46.43116028 61.15164352 45.37696899 61.15802338 44.29083252 61.16459656 C42.6077298 61.16626579 42.6077298 61.16626579 40.890625 61.16796875 C39.72746765 61.17129715 38.5643103 61.17462555 37.36590576 61.17805481 C34.91500239 61.18310574 32.46409217 61.1854637 30.01318359 61.18530273 C26.24956133 61.18750026 22.48622712 61.20570559 18.72265625 61.22460938 C16.34114684 61.22754138 13.95963603 61.22952747 11.578125 61.23046875 C9.88287689 61.24124702 9.88287689 61.24124702 8.15338135 61.25224304 C6.59100739 61.2476281 6.59100739 61.2476281 4.99707031 61.24291992 C4.07806946 61.24434494 3.1590686 61.24576996 2.21221924 61.24723816 C0 61 0 61 -2 59 C-2.25396729 56.65370178 -2.25396729 56.65370178 -2.25878906 53.67993164 C-2.26824554 52.01293968 -2.26824554 52.01293968 -2.27789307 50.31227112 C-2.2738446 49.10707321 -2.26979614 47.90187531 -2.265625 46.66015625 C-2.26753845 45.42712265 -2.2694519 44.19408905 -2.27142334 42.9236908 C-2.27313621 39.64174412 -2.26506755 36.35998562 -2.25390625 33.07806396 C-2.2500069 31.06605997 -2.25388805 29.05423069 -2.26074219 27.04223633 C-2.27307499 23.18562678 -2.27160516 19.32927647 -2.265625 15.47265625 C-2.26967346 14.26948257 -2.27372192 13.0663089 -2.27789307 11.82667542 C-2.27158875 10.71219528 -2.26528442 9.59771515 -2.25878906 8.44946289 C-2.25719788 7.46732315 -2.25560669 6.48518341 -2.25396729 5.47328186 C-2 3 -2 3 0 0 Z " fill="#F8C031" transform="translate(203,190)"/>
<path d="M0 0 C1.7115477 0.0001133 1.7115477 0.0001133 3.45767212 0.00022888 C4.69415497 0.00539017 5.93063782 0.01055145 7.20458984 0.01586914 C8.46693451 0.01728409 9.72927917 0.01869904 11.02987671 0.02015686 C14.38691033 0.02481461 17.74387635 0.03380131 21.10089111 0.04486084 C24.52607641 0.05508769 27.95126868 0.05965721 31.37646484 0.06469727 C38.09783777 0.07574301 44.81917865 0.09249346 51.54052734 0.11352539 C52.84813627 2.72874324 52.66050282 4.6446594 52.65405273 7.57299805 C52.6539772 8.71402985 52.65390167 9.85506165 52.65382385 11.03067017 C52.64866257 12.26715302 52.64350128 13.50363586 52.63818359 14.77758789 C52.63676865 16.03993256 52.6353537 17.30227722 52.63389587 18.60287476 C52.62923812 21.95990838 52.62025142 25.31687439 52.60919189 28.67388916 C52.59896504 32.09907446 52.59439552 35.52426673 52.58935547 38.94946289 C52.57830973 45.67083582 52.56155928 52.3921767 52.54052734 59.11352539 C46.27091714 60.22868877 40.12814257 60.25832896 33.77099609 60.24633789 C32.09497063 60.24777298 32.09497063 60.24777298 30.38508606 60.24923706 C28.03431135 60.2499152 25.68353474 60.24808652 23.33276367 60.24389648 C19.72293953 60.23851781 16.11323839 60.2438668 12.50341797 60.25024414 C10.2176104 60.24958379 7.93180291 60.24830352 5.64599609 60.24633789 C4.02107491 60.24937424 4.02107491 60.24937424 2.36332703 60.25247192 C1.36501358 60.24931976 0.36670013 60.2461676 -0.66186523 60.24291992 C-1.98254753 60.24172653 -1.98254753 60.24172653 -3.32991028 60.24050903 C-5.45947266 60.11352539 -5.45947266 60.11352539 -7.45947266 59.11352539 C-7.45947266 39.97352539 -7.45947266 20.83352539 -7.45947266 1.11352539 C-4.84425481 -0.19408353 -2.92833865 -0.00645009 0 0 Z " fill="#F9548D" transform="translate(299.45947265625,280.886474609375)"/>
<path d="M0 0 C19.47 0 38.94 0 59 0 C59 124.08 59 248.16 59 376 C39.86 376 20.72 376 1 376 C-0.09963966 372.70108102 -0.12421337 370.28005701 -0.12304783 366.80557728 C-0.12503888 365.50029758 -0.12702993 364.19501789 -0.12908131 362.85018426 C-0.12622806 361.39302733 -0.12328245 359.93587057 -0.12025452 358.47871399 C-0.12069033 356.93757411 -0.12156541 355.3964343 -0.12284368 353.85529488 C-0.12508674 349.60927649 -0.12106991 345.36328317 -0.11606562 341.11726797 C-0.11175862 336.54263583 -0.11320772 331.96800518 -0.1139679 327.39337158 C-0.11449297 319.46382116 -0.11134787 311.53427896 -0.10573006 303.60473061 C-0.09761285 292.13984761 -0.09499961 280.67496859 -0.09374207 269.21008303 C-0.09155189 250.61034933 -0.08489275 232.01062 -0.07543945 213.41088867 C-0.06626444 195.33992535 -0.05918404 177.26896322 -0.05493164 159.19799805 C-0.05466892 158.08463687 -0.05440619 156.97127569 -0.05413551 155.82417629 C-0.0528305 150.23892962 -0.05156678 144.65368295 -0.05032361 139.06843626 C-0.03995208 92.71228766 -0.02206004 46.3561444 0 0 Z M2 3 C2 125.1 2 247.2 2 373 C30.51258372 376.99572467 30.51258372 376.99572467 56 371 C56.4528144 368.27942077 56.4528144 368.27942077 56.36914349 365.02232933 C56.37511663 363.73994106 56.38108978 362.45755278 56.38724393 361.13630426 C56.37868365 359.69978513 56.36984684 358.26326763 56.36076355 356.82675171 C56.36207063 355.31122222 56.36469524 353.79569338 56.36853105 352.28016818 C56.37526726 348.10022329 56.36320054 343.92050723 56.34819686 339.74059153 C56.33528571 335.23888033 56.33962246 330.73718287 56.34190369 326.23545837 C56.34347955 318.43081968 56.33403774 310.62625602 56.31719017 302.8216362 C56.29284701 291.53736788 56.28499971 280.25313598 56.2812262 268.96884425 C56.27465434 250.66247714 56.2546733 232.35615005 56.22631836 214.04980469 C56.19879676 196.26302288 56.17755389 178.47625192 56.16479492 160.68945312 C56.16361267 159.04590023 56.16361267 159.04590023 56.16240653 157.36914425 C56.15849152 151.87253143 56.15470037 146.37591854 56.15097082 140.8793056 C56.11985206 95.25284267 56.06699632 49.6264234 56 4 C39.89755022 -4.05122489 20.00308616 3 2 3 Z " fill="#595D90" transform="translate(383,21)"/>
<path d="M0 0 C1.32 0.33 2.64 0.66 4 1 C3.34 1 2.68 1 2 1 C2.33 122.44 2.66 243.88 3 369 C20.49 369.33 37.98 369.66 56 370 C56 365.38 56 360.76 56 356 C56.33 356 56.66 356 57 356 C57 361.28 57 366.56 57 372 C49.20377841 372.02465958 41.40757936 372.04284068 33.61132812 372.05493164 C30.95735275 372.05997042 28.30338016 372.06680151 25.64941406 372.07543945 C21.84178989 372.08752489 18.03420231 372.09323275 14.2265625 372.09765625 C13.03382721 372.10281754 11.84109192 372.10797882 10.61221313 372.11329651 C9.51122284 372.11337204 8.41023254 372.11344757 7.27587891 372.11352539 C5.8169371 372.11685631 5.8169371 372.11685631 4.32852173 372.12025452 C2 372 2 372 0 371 C0 248.57 0 126.14 0 0 Z " fill="#272868" transform="translate(112,148)"/>
<path d="M0 0 C1.7115477 0.0001133 1.7115477 0.0001133 3.45767212 0.00022888 C4.69415497 0.00539017 5.93063782 0.01055145 7.20458984 0.01586914 C8.46693451 0.01728409 9.72927917 0.01869904 11.02987671 0.02015686 C14.38691033 0.02481461 17.74387635 0.03380131 21.10089111 0.04486084 C24.52607641 0.05508769 27.95126868 0.05965721 31.37646484 0.06469727 C38.09783777 0.07574301 44.81917865 0.09249346 51.54052734 0.11352539 C52.47467677 2.91597367 52.66610848 4.60009756 52.66751099 7.49604797 C52.67033081 8.39181549 52.67315063 9.28758301 52.67605591 10.210495 C52.67403168 11.19081192 52.67200745 12.17112885 52.66992188 13.18115234 C52.67167419 14.21558472 52.67342651 15.25001709 52.67523193 16.3157959 C52.67964256 19.74448308 52.67671456 23.1731189 52.67333984 26.60180664 C52.67401326 28.98211171 52.67498361 31.36241672 52.67623901 33.74272156 C52.67771504 38.73701633 52.67556502 43.73129324 52.67089844 48.72558594 C52.66521049 55.12472874 52.66847484 61.52382952 52.6744709 67.92297077 C52.67808697 72.84118465 52.67693294 77.75938859 52.67434311 82.67760277 C52.67367626 85.03669426 52.67449383 87.39578665 52.67682266 89.75487709 C52.67936527 93.05584724 52.67548541 96.35674972 52.66992188 99.65771484 C52.67194611 100.63195908 52.67397034 101.60620331 52.67605591 102.60997009 C52.66165954 107.22642135 52.492571 111.57210764 51.54052734 116.11352539 C43.99554501 116.1366539 36.45056634 116.15444308 28.90555668 116.16533756 C25.4024385 116.17056528 21.8993445 116.17766089 18.39624023 116.18896484 C14.37271894 116.20186745 10.3492232 116.20675451 6.32568359 116.21118164 C5.06216568 116.21634293 3.79864777 116.22150421 2.49684143 116.2268219 C1.33571335 116.22689743 0.17458527 116.22697296 -1.02172852 116.22705078 C-2.56394325 116.2303817 -2.56394325 116.2303817 -4.13731384 116.23377991 C-6.45947266 116.11352539 -6.45947266 116.11352539 -7.45947266 115.11352539 C-7.55515841 113.63336145 -7.58135533 112.14864266 -7.57972717 110.66539001 C-7.58110184 109.70480179 -7.5824765 108.74421356 -7.58389282 107.7545166 C-7.58029755 106.69212769 -7.57670227 105.62973877 -7.57299805 104.53515625 C-7.57314407 103.42310318 -7.5732901 102.31105011 -7.57344055 101.16529846 C-7.57274086 97.46963588 -7.56494585 93.77402298 -7.55712891 90.07836914 C-7.55526493 87.52389046 -7.55384093 84.96941142 -7.55284119 82.41493225 C-7.5494061 76.36590829 -7.5415153 70.31690584 -7.5314917 64.26789051 C-7.52032949 57.38287385 -7.51481984 50.49785635 -7.50979626 43.6128329 C-7.49933266 29.44638709 -7.48173388 15.27995722 -7.45947266 1.11352539 C-4.84425481 -0.19408353 -2.92833865 -0.00645009 0 0 Z M-4.45947266 3.11352539 C-4.45947266 39.41352539 -4.45947266 75.71352539 -4.45947266 113.11352539 C24.00843804 116.71366089 24.00843804 116.71366089 50.54052734 112.11352539 C50.61054911 98.19703678 50.66328258 84.2805754 50.69596386 70.36394691 C50.71164611 63.90248141 50.73293108 57.44113391 50.7668457 50.97973633 C50.79934783 44.74873056 50.81736106 38.51783858 50.82515907 32.28675461 C50.83071905 29.90480125 50.84157569 27.5228544 50.85771751 25.14094925 C50.87937002 21.81477455 50.88249936 18.48907517 50.88110352 15.1628418 C50.89188934 14.16950333 50.90267517 13.17616486 50.91378784 12.15272522 C50.90966385 11.24966141 50.90553986 10.3465976 50.90129089 9.41616821 C50.90543896 8.2353514 50.90543896 8.2353514 50.90967083 7.0306797 C50.78785348 6.39801878 50.66603613 5.76535786 50.54052734 5.11352539 C35.27618982 -5.06269962 13.88597788 3.11352539 -4.45947266 3.11352539 Z " fill="#9EA1B8" transform="translate(299.45947265625,133.886474609375)"/>
<path d="M0 0 C19.47 0 38.94 0 59 0 C59.63649228 3.8189537 60.12507282 6.80867479 60.12698364 10.54673767 C60.12980347 11.40311325 60.13262329 12.25948883 60.13552856 13.14181519 C60.13350433 14.06302155 60.1314801 14.98422791 60.12939453 15.93334961 C60.13114685 16.91784592 60.13289917 17.90234222 60.13470459 18.91667175 C60.1390956 22.16191383 60.13619455 25.40710114 60.1328125 28.65234375 C60.13348638 30.91386424 60.13445711 33.17538466 60.13571167 35.43690491 C60.13718496 40.17368256 60.1350461 44.91044134 60.13037109 49.6472168 C60.12467731 55.71099572 60.12795295 61.77473035 60.13394356 67.83850765 C60.13756188 72.50798372 60.13640467 77.17744934 60.13381577 81.84692574 C60.13314985 84.08238289 60.13396319 86.317841 60.13629532 88.55329704 C60.13884231 91.68130878 60.13495222 94.8092494 60.12939453 97.93725586 C60.13141876 98.85643799 60.13344299 99.77562012 60.13552856 100.72265625 C60.11955673 105.58924562 59.82216015 110.20141351 59 115 C55.9665602 116.0111466 53.90774148 116.13248421 50.73413086 116.14526367 C49.12247292 116.15483345 49.12247292 116.15483345 47.47825623 116.16459656 C46.31883011 116.16570938 45.15940399 116.1668222 43.96484375 116.16796875 C42.77524551 116.17129715 41.58564728 116.17462555 40.36000061 116.17805481 C37.84408963 116.18312004 35.32817193 116.18546326 32.81225586 116.18530273 C28.94959565 116.18749314 25.08721917 116.20566416 21.22460938 116.22460938 C18.78385515 116.2275425 16.34309956 116.22952784 13.90234375 116.23046875 C12.7408934 116.23765427 11.57944305 116.24483978 10.38279724 116.25224304 C9.31151077 116.24916641 8.2402243 116.24608978 7.13647461 116.24291992 C6.19066025 116.24434494 5.24484589 116.24576996 4.27037048 116.24723816 C2 116 2 116 0 114 C-0.24609566 111.97352409 -0.24609566 111.97352409 -0.24050903 109.43161011 C-0.24325836 108.46964722 -0.24600769 107.50768433 -0.24884033 106.51657104 C-0.24164978 105.4577774 -0.23445923 104.39898376 -0.22705078 103.30810547 C-0.22748886 101.63980682 -0.22748886 101.63980682 -0.22793579 99.93780518 C-0.22653818 96.24752096 -0.21095662 92.55743661 -0.1953125 88.8671875 C-0.1915839 86.3141389 -0.18873621 83.76108887 -0.18673706 81.20803833 C-0.17987103 75.16610061 -0.16409495 69.12424918 -0.14403808 63.08234608 C-0.11951066 55.53017165 -0.10854707 47.97798555 -0.09765625 40.42578125 C-0.07816379 26.95046457 -0.03810171 13.47530545 0 0 Z M3 2 C3 38.63 3 75.26 3 113 C21.15 113 39.3 113 58 113 C58.02909659 95.06640782 58.02909659 95.06640782 58.04882812 77.1328125 C58.05480071 69.81607333 58.06185869 62.49934671 58.07543945 55.18261719 C58.08632242 49.28227094 58.09228831 43.38193815 58.09487724 37.48158264 C58.09672174 35.23299447 58.10032356 32.98440701 58.10573006 30.73582458 C58.11301226 27.58102845 58.11398791 24.42628759 58.11352539 21.27148438 C58.1189183 19.88396469 58.1189183 19.88396469 58.12442017 18.46841431 C58.64630899 9.67450378 58.64630899 9.67450378 56 2 C38.51 2 21.02 2 3 2 Z " fill="#8F94AE" transform="translate(292,372)"/>
<path d="M0 0 C19.47 0 38.94 0 59 0 C59 37.95 59 75.9 59 115 C58.34 115 57.68 115 57 115 C57 77.71 57 40.42 57 2 C38.85 2 20.7 2 2 2 C2 39.29 2 76.58 2 115 C1.34 115 0.68 115 0 115 C0 77.05 0 39.1 0 0 Z " fill="#7E84AB" transform="translate(202,44)"/>
<path d="M0 0 C0 37.95 0 75.9 0 115 C-19.47 115 -38.94 115 -59 115 C-59 77.05 -59 39.1 -59 0 C-5 -1 -5 -1 0 0 Z M-57 1 C-57 37.96 -57 74.92 -57 113 C-38.52 113 -20.04 113 -1 113 C-1 76.04 -1 39.08 -1 1 C-19.48 1 -37.96 1 -57 1 Z " fill="#8C90B1" transform="translate(261,282)"/>
<path d="M0 0 C2.39099121 -0.3742218 2.39099121 -0.3742218 5.42773438 -0.37231445 C6.56231079 -0.37854324 7.69688721 -0.38477203 8.86584473 -0.39118958 C10.09605347 -0.38197983 11.32626221 -0.37277008 12.59375 -0.36328125 C13.85135132 -0.36377975 15.10895264 -0.36427826 16.40466309 -0.36479187 C19.0680986 -0.36244751 21.73074446 -0.35426594 24.39404297 -0.33618164 C27.81073454 -0.31349391 31.226984 -0.31294978 34.64373016 -0.31969929 C37.89793687 -0.32384097 41.15206479 -0.3118695 44.40625 -0.30078125 C46.25156311 -0.30214836 46.25156311 -0.30214836 48.13415527 -0.30354309 C49.26873169 -0.29401108 50.40330811 -0.28447906 51.57226562 -0.2746582 C52.57439087 -0.27005081 53.57651611 -0.26544342 54.60900879 -0.26069641 C57 0 57 0 59 2 C59.24050903 4.44241333 59.24050903 4.44241333 59.22705078 7.55126953 C59.22689972 8.71232208 59.22674866 9.87337463 59.22659302 11.0696106 C59.21627045 12.32796722 59.20594788 13.58632385 59.1953125 14.8828125 C59.1924826 16.16735321 59.18965271 17.45189392 59.18673706 18.77536011 C59.17909809 22.19162767 59.15944752 25.60772537 59.1373291 29.02392578 C59.11687624 32.50941673 59.10773655 35.9949351 59.09765625 39.48046875 C59.07620175 46.32038231 59.04206271 53.160183 59 60 C55.11690529 60.71791062 51.43255971 61.12894809 47.48535156 61.14526367 C46.43116028 61.15164352 45.37696899 61.15802338 44.29083252 61.16459656 C42.6077298 61.16626579 42.6077298 61.16626579 40.890625 61.16796875 C39.72746765 61.17129715 38.5643103 61.17462555 37.36590576 61.17805481 C34.91500239 61.18310574 32.46409217 61.1854637 30.01318359 61.18530273 C26.24956133 61.18750026 22.48622712 61.20570559 18.72265625 61.22460938 C16.34114684 61.22754138 13.95963603 61.22952747 11.578125 61.23046875 C9.88287689 61.24124702 9.88287689 61.24124702 8.15338135 61.25224304 C6.59100739 61.2476281 6.59100739 61.2476281 4.99707031 61.24291992 C4.07806946 61.24434494 3.1590686 61.24576996 2.21221924 61.24723816 C0 61 0 61 -2 59 C-2.25396729 56.65370178 -2.25396729 56.65370178 -2.25878906 53.67993164 C-2.26824554 52.01293968 -2.26824554 52.01293968 -2.27789307 50.31227112 C-2.2738446 49.10707321 -2.26979614 47.90187531 -2.265625 46.66015625 C-2.26753845 45.42712265 -2.2694519 44.19408905 -2.27142334 42.9236908 C-2.27313621 39.64174412 -2.26506755 36.35998562 -2.25390625 33.07806396 C-2.2500069 31.06605997 -2.25388805 29.05423069 -2.26074219 27.04223633 C-2.27307499 23.18562678 -2.27160516 19.32927647 -2.265625 15.47265625 C-2.26967346 14.26948257 -2.27372192 13.0663089 -2.27789307 11.82667542 C-2.27158875 10.71219528 -2.26528442 9.59771515 -2.25878906 8.44946289 C-2.25719788 7.46732315 -2.25560669 6.48518341 -2.25396729 5.47328186 C-2 3 -2 3 0 0 Z M1 2 C1 20.81 1 39.62 1 59 C19.81 59 38.62 59 58 59 C58 40.19 58 21.38 58 2 C39.19 2 20.38 2 1 2 Z " fill="#FDF6D7" transform="translate(203,190)"/>
<path d="M0 0 C0.99 0.495 0.99 0.495 2 1 C2 36.97 2 72.94 2 110 C19.16 110.33 36.32 110.66 54 111 C54 74.7 54 38.4 54 1 C54.33 1 54.66 1 55 1 C55 37.96 55 74.92 55 113 C36.85 113 18.7 113 0 113 C0 75.71 0 38.42 0 0 Z " fill="#1E2567" transform="translate(204,46)"/>
<path d="M0 0 C1.32 0 2.64 0 4 0 C5.16554615 2.3310923 5.12573201 3.67962287 5.12698364 6.27572632 C5.12980347 7.17300949 5.13262329 8.07029266 5.13552856 8.99476624 C5.13350433 9.98182053 5.1314801 10.96887482 5.12939453 11.98583984 C5.13114685 13.02333878 5.13289917 14.06083771 5.13470459 15.129776 C5.13912051 18.57351331 5.13618558 22.01719963 5.1328125 25.4609375 C5.13348572 27.84746307 5.13445589 30.23398858 5.13571167 32.62051392 C5.13718838 37.62917736 5.13503533 42.637823 5.13037109 47.64648438 C5.12467999 54.07163603 5.12794907 60.49674587 5.13394356 66.92189598 C5.13755515 71.85289831 5.13640771 76.78389071 5.13381577 81.71489334 C5.13314784 84.08401113 5.13397026 86.45312981 5.13629532 88.82224655 C5.13883093 92.13331239 5.13496803 95.44431032 5.12939453 98.75537109 C5.13141876 99.73837692 5.13344299 100.72138275 5.13552856 101.73417664 C5.13270874 102.63709946 5.12988892 103.54002228 5.12698364 104.4703064 C5.12660662 105.25307638 5.12622959 106.03584637 5.12584114 106.84233665 C4.99933639 109.01137814 4.59740119 110.91556462 4 113 C3.34 113 2.68 113 2 113 C2.33 77.03 2.66 41.06 3 4 C2.01 3.67 1.02 3.34 0 3 C0 2.01 0 1.02 0 0 Z " fill="#868BA3" transform="translate(347,135)"/>
<path d="M0 0 C0.66 0 1.32 0 2 0 C2 18.81 2 37.62 2 57 C-16.81 57 -35.62 57 -55 57 C-55 55.02 -55 53.04 -55 51 C-54.67 52.32 -54.34 53.64 -54 55 C-36.18 55 -18.36 55 0 55 C0 36.85 0 18.7 0 0 Z " fill="#EFD177" transform="translate(259,192)"/>
<path d="M0 0 C18.81 0 37.62 0 57 0 C55.68 0.33 54.36 0.66 53 1 C53 1.66 53 2.32 53 3 C35.51 3.33 18.02 3.66 0 4 C0 2.68 0 1.36 0 0 Z " fill="#33386C" transform="translate(294,134)"/>
<path d="M0 0 C18.81 0 37.62 0 57 0 C56.34 0.99 55.68 1.98 55 3 C52.92617798 3.35403442 52.92617798 3.35403442 50.33837891 3.32470703 C49.37042389 3.32125275 48.40246887 3.31779846 47.40518188 3.3142395 C45.83176529 3.28630814 45.83176529 3.28630814 44.2265625 3.2578125 C42.61362808 3.24788773 42.61362808 3.24788773 40.96810913 3.23776245 C37.52011978 3.21428931 34.07276218 3.17057993 30.625 3.125 C27.18445394 3.08994139 23.7439446 3.05912718 20.30331421 3.03366089 C18.15972005 3.01668657 16.0161641 2.99354684 13.87271118 2.96365356 C12.89845184 2.95389496 11.9241925 2.94413635 10.92041016 2.93408203 C10.06484528 2.92281281 9.2092804 2.91154358 8.32778931 2.89993286 C6.07668585 2.99670342 4.15643681 3.36818295 2 4 C2 3.34 2 2.68 2 2 C1.34 1.34 0.68 0.68 0 0 Z " fill="#363A7C" transform="translate(112,147)"/>
<path d="M0 0 C18.81 0 37.62 0 57 0 C57.98484577 4.92422885 58.03342293 5.81354102 56 10 C55.67 10 55.34 10 55 10 C54.505 6.04 54.505 6.04 54 2 C36.18 1.67 18.36 1.34 0 1 C0 0.67 0 0.34 0 0 Z " fill="#2D3172" transform="translate(294,373)"/>
<path d="M0 0 C1.32 0.33 2.64 0.66 4 1 C4.1875 3.8125 4.1875 3.8125 4 7 C3.01 7.99 2.02 8.98 1 10 C0.67 6.7 0.34 3.4 0 0 Z " fill="#434773" transform="translate(348,373)"/>
</svg>
